<svg width="933" height="968" viewBox="0 0 933 968" fill="none" xmlns="http://www.w3.org/2000/svg">
<rect x="0.0604248" width="932.94" height="968" fill="url(#paint0_linear_224_3)"/>
<rect width="541.428" height="130.373" transform="matrix(0.999393 -0.034827 0.0349721 0.999388 67.1997 146.974)" fill="white"/>
<path d="M160.702 195.846C160.702 200.831 159.549 205.37 157.242 209.462C154.935 213.48 151.513 216.68 146.974 219.061C142.51 221.442 137.078 222.632 130.679 222.632H120.858V247.744H96.0805V168.725H130.679C140.352 168.725 147.755 171.181 152.889 176.091C158.098 181.002 160.702 187.587 160.702 195.846ZM127.889 203.101C133.023 203.101 135.59 200.682 135.59 195.846C135.59 191.01 133.023 188.591 127.889 188.591H120.858V203.101H127.889ZM219.231 235.802H192.891L188.985 247.744H162.98L191.887 168.725H220.459L249.253 247.744H223.137L219.231 235.802ZM213.204 217.163L206.061 195.176L198.918 217.163H213.204ZM330.776 168.725L302.428 223.748V247.744H277.651V223.748L249.302 168.725H277.651L290.263 196.739L302.874 168.725H330.776ZM369.334 168.725C377.593 168.725 384.81 170.399 390.986 173.748C397.236 177.096 402.035 181.746 405.383 187.699C408.731 193.651 410.406 200.422 410.406 208.011C410.406 215.526 408.731 222.297 405.383 228.324C402.035 234.351 397.236 239.113 390.986 242.61C384.81 246.033 377.593 247.744 369.334 247.744H336.409V168.725H369.334ZM367.101 225.645C372.682 225.645 377.109 224.12 380.383 221.069C383.657 218.019 385.294 213.666 385.294 208.011C385.294 202.356 383.657 198.004 380.383 194.953C377.109 191.902 372.682 190.377 367.101 190.377H361.186V225.645H367.101ZM470.023 235.802H443.683L439.777 247.744H413.772L442.679 168.725H471.25L500.045 247.744H473.929L470.023 235.802ZM463.996 217.163L456.853 195.176L449.71 217.163H463.996ZM581.568 168.725L553.22 223.748V247.744H528.443V223.748L500.094 168.725H528.443L541.054 196.739L553.666 168.725H581.568ZM126.996 385.525C117.547 385.525 109.734 383.33 103.558 378.94C97.457 374.476 94.146 367.965 93.6252 359.409H119.965C120.337 363.948 122.346 366.217 125.992 366.217C127.331 366.217 128.447 365.919 129.34 365.324C130.307 364.654 130.791 363.65 130.791 362.311C130.791 360.45 129.786 358.962 127.777 357.846C125.768 356.656 122.643 355.316 118.402 353.828C113.343 352.043 109.139 350.294 105.79 348.583C102.517 346.871 99.6892 344.379 97.3082 341.105C94.9273 337.831 93.774 333.627 93.8484 328.493C93.8484 323.359 95.1505 319.007 97.7547 315.435C100.433 311.789 104.042 309.036 108.581 307.176C113.194 305.316 118.365 304.386 124.094 304.386C133.767 304.386 141.431 306.618 147.086 311.082C152.815 315.547 155.828 321.834 156.126 329.944H129.451C129.377 327.712 128.819 326.112 127.777 325.145C126.736 324.178 125.471 323.694 123.983 323.694C122.941 323.694 122.085 324.066 121.416 324.81C120.746 325.48 120.411 326.447 120.411 327.712C120.411 329.498 121.378 330.986 123.313 332.176C125.322 333.292 128.484 334.669 132.8 336.306C137.785 338.166 141.877 339.952 145.077 341.663C148.35 343.374 151.178 345.755 153.559 348.806C155.94 351.857 157.13 355.689 157.13 360.302C157.13 365.138 155.94 369.491 153.559 373.36C151.178 377.155 147.718 380.131 143.179 382.289C138.641 384.446 133.246 385.525 126.996 385.525ZM216.506 372.802H190.166L186.26 384.744H160.255L189.162 305.725H217.734L246.529 384.744H220.412L216.506 372.802ZM210.479 354.163L203.336 332.176L196.193 354.163H210.479ZM276.935 365.994H300.819V384.744H252.158V305.725H276.935V365.994ZM333.393 325.48V335.19H357.947V353.828H333.393V364.989H361.295V384.744H308.616V305.725H361.295V325.48H333.393ZM465.38 384.744H440.603L414.375 345.011V384.744H389.598V305.725H414.375L440.603 346.127V305.725H465.38V384.744ZM515.078 385.525C507.638 385.525 500.793 383.777 494.543 380.28C488.367 376.782 483.456 371.946 479.81 365.77C476.164 359.595 474.341 352.638 474.341 344.9C474.341 337.162 476.164 330.205 479.81 324.029C483.456 317.853 488.367 313.054 494.543 309.631C500.793 306.134 507.638 304.386 515.078 304.386C522.519 304.386 529.327 306.134 535.503 309.631C541.678 313.054 546.552 317.853 550.124 324.029C553.769 330.205 555.592 337.162 555.592 344.9C555.592 352.638 553.769 359.595 550.124 365.77C546.552 371.946 541.641 376.782 535.391 380.28C529.216 383.777 522.445 385.525 515.078 385.525ZM515.078 362.422C519.989 362.422 523.784 360.86 526.463 357.735C529.141 354.535 530.48 350.257 530.48 344.9C530.48 339.468 529.141 335.19 526.463 332.065C523.784 328.865 519.989 327.266 515.078 327.266C510.093 327.266 506.261 328.865 503.583 332.065C500.904 335.19 499.565 339.468 499.565 344.9C499.565 350.257 500.904 354.535 503.583 357.735C506.261 360.86 510.093 362.422 515.078 362.422ZM678.371 305.725L660.291 384.744H629.487L620.335 339.877L611.183 384.744H580.379L562.298 305.725H588.973L596.116 355.502L606.83 305.725H633.839L644.554 355.502L651.697 305.725H678.371Z" fill="black"/>
<path d="M101.456 487.082C99.7745 487.082 98.2608 486.794 96.9153 486.217C95.5698 485.616 94.5126 484.775 93.7437 483.694C92.9749 482.613 92.5905 481.351 92.5905 479.91H96.9874C97.0835 480.991 97.5039 481.88 98.2488 482.577C99.0176 483.274 100.087 483.622 101.456 483.622C102.874 483.622 103.979 483.286 104.772 482.613C105.565 481.916 105.961 481.027 105.961 479.946C105.961 479.105 105.709 478.42 105.205 477.892C104.724 477.363 104.111 476.955 103.366 476.666C102.646 476.378 101.637 476.066 100.339 475.729C98.7053 475.297 97.3718 474.864 96.3386 474.432C95.3295 473.975 94.4645 473.278 93.7437 472.341C93.0229 471.404 92.6625 470.155 92.6625 468.593C92.6625 467.152 93.0229 465.89 93.7437 464.809C94.4645 463.728 95.4737 462.899 96.7711 462.322C98.0686 461.746 99.5702 461.457 101.276 461.457C103.703 461.457 105.685 462.07 107.223 463.295C108.785 464.497 109.649 466.155 109.818 468.269H105.277C105.205 467.356 104.772 466.575 103.979 465.926C103.186 465.278 102.141 464.953 100.844 464.953C99.6663 464.953 98.7053 465.254 97.9604 465.854C97.2156 466.455 96.8432 467.32 96.8432 468.449C96.8432 469.218 97.0715 469.855 97.528 470.359C98.0085 470.84 98.6092 471.224 99.33 471.512C100.051 471.801 101.036 472.113 102.285 472.45C103.943 472.906 105.289 473.363 106.322 473.819C107.379 474.276 108.268 474.984 108.989 475.945C109.734 476.882 110.106 478.144 110.106 479.73C110.106 481.003 109.758 482.204 109.061 483.334C108.388 484.463 107.391 485.376 106.069 486.073C104.772 486.745 103.234 487.082 101.456 487.082ZM118.342 469.891C119.039 468.978 119.988 468.209 121.189 467.584C122.39 466.959 123.748 466.647 125.261 466.647C126.991 466.647 128.565 467.08 129.983 467.945C131.424 468.785 132.554 469.975 133.371 471.512C134.187 473.05 134.596 474.816 134.596 476.81C134.596 478.805 134.187 480.595 133.371 482.18C132.554 483.742 131.424 484.968 129.983 485.857C128.565 486.721 126.991 487.154 125.261 487.154C123.748 487.154 122.402 486.854 121.225 486.253C120.048 485.628 119.087 484.859 118.342 483.946V496.272H114.233V466.971H118.342V469.891ZM130.415 476.81C130.415 475.441 130.127 474.264 129.55 473.278C128.998 472.269 128.253 471.512 127.316 471.008C126.403 470.479 125.418 470.215 124.36 470.215C123.327 470.215 122.342 470.479 121.405 471.008C120.492 471.537 119.747 472.305 119.171 473.315C118.618 474.324 118.342 475.513 118.342 476.882C118.342 478.252 118.618 479.453 119.171 480.487C119.747 481.496 120.492 482.264 121.405 482.793C122.342 483.322 123.327 483.586 124.36 483.586C125.418 483.586 126.403 483.322 127.316 482.793C128.253 482.24 128.998 481.448 129.55 480.414C130.127 479.381 130.415 478.18 130.415 476.81ZM156.138 476.414C156.138 477.159 156.09 477.832 155.994 478.432H140.821C140.941 480.018 141.53 481.291 142.587 482.252C143.644 483.214 144.942 483.694 146.48 483.694C148.69 483.694 150.252 482.769 151.165 480.919H155.598C154.997 482.745 153.904 484.247 152.318 485.424C150.756 486.577 148.81 487.154 146.48 487.154C144.581 487.154 142.876 486.733 141.362 485.893C139.872 485.028 138.695 483.826 137.83 482.289C136.989 480.727 136.569 478.925 136.569 476.882C136.569 474.84 136.977 473.05 137.794 471.512C138.635 469.951 139.8 468.749 141.29 467.908C142.803 467.068 144.533 466.647 146.48 466.647C148.354 466.647 150.024 467.056 151.489 467.872C152.955 468.689 154.096 469.843 154.913 471.332C155.73 472.798 156.138 474.492 156.138 476.414ZM151.85 475.117C151.826 473.603 151.285 472.389 150.228 471.476C149.171 470.563 147.861 470.107 146.299 470.107C144.882 470.107 143.668 470.563 142.659 471.476C141.65 472.365 141.05 473.579 140.857 475.117H151.85ZM169.48 466.647C171.042 466.647 172.435 466.971 173.661 467.62C174.91 468.269 175.883 469.23 176.58 470.503C177.277 471.777 177.625 473.315 177.625 475.117V486.83H173.553V475.729C173.553 473.951 173.108 472.594 172.219 471.657C171.33 470.696 170.117 470.215 168.579 470.215C167.041 470.215 165.816 470.696 164.903 471.657C164.014 472.594 163.569 473.951 163.569 475.729V486.83H159.461V466.971H163.569V469.242C164.242 468.425 165.095 467.788 166.128 467.332C167.185 466.875 168.303 466.647 169.48 466.647ZM180.776 476.81C180.776 474.816 181.184 473.05 182.001 471.512C182.842 469.975 183.971 468.785 185.389 467.945C186.83 467.08 188.428 466.647 190.182 466.647C191.479 466.647 192.753 466.935 194.002 467.512C195.276 468.065 196.285 468.809 197.03 469.747V460.16H201.174V486.83H197.03V483.838C196.357 484.799 195.42 485.592 194.219 486.217C193.041 486.842 191.684 487.154 190.146 487.154C188.416 487.154 186.83 486.721 185.389 485.857C183.971 484.968 182.842 483.742 182.001 482.18C181.184 480.595 180.776 478.805 180.776 476.81ZM197.03 476.882C197.03 475.513 196.741 474.324 196.165 473.315C195.612 472.305 194.879 471.537 193.966 471.008C193.053 470.479 192.068 470.215 191.011 470.215C189.954 470.215 188.969 470.479 188.056 471.008C187.143 471.512 186.398 472.269 185.821 473.278C185.269 474.264 184.992 475.441 184.992 476.81C184.992 478.18 185.269 479.381 185.821 480.414C186.398 481.448 187.143 482.24 188.056 482.793C188.993 483.322 189.978 483.586 191.011 483.586C192.068 483.586 193.053 483.322 193.966 482.793C194.879 482.264 195.612 481.496 196.165 480.487C196.741 479.453 197.03 478.252 197.03 476.882ZM238.53 466.647C240.092 466.647 241.485 466.971 242.711 467.62C243.96 468.269 244.933 469.23 245.63 470.503C246.351 471.777 246.711 473.315 246.711 475.117V486.83H242.639V475.729C242.639 473.951 242.194 472.594 241.305 471.657C240.416 470.696 239.203 470.215 237.665 470.215C236.127 470.215 234.902 470.696 233.989 471.657C233.1 472.594 232.655 473.951 232.655 475.729V486.83H228.583V475.729C228.583 473.951 228.138 472.594 227.249 471.657C226.36 470.696 225.147 470.215 223.609 470.215C222.072 470.215 220.846 470.696 219.933 471.657C219.044 472.594 218.6 473.951 218.6 475.729V486.83H214.491V466.971H218.6V469.242C219.272 468.425 220.125 467.788 221.159 467.332C222.192 466.875 223.297 466.647 224.474 466.647C226.06 466.647 227.478 466.983 228.727 467.656C229.976 468.329 230.937 469.302 231.61 470.575C232.211 469.374 233.148 468.425 234.421 467.728C235.695 467.007 237.064 466.647 238.53 466.647ZM253.309 464.34C252.564 464.34 251.939 464.088 251.435 463.584C250.93 463.079 250.678 462.454 250.678 461.71C250.678 460.965 250.93 460.34 251.435 459.835C251.939 459.331 252.564 459.079 253.309 459.079C254.029 459.079 254.642 459.331 255.147 459.835C255.651 460.34 255.904 460.965 255.904 461.71C255.904 462.454 255.651 463.079 255.147 463.584C254.642 464.088 254.029 464.34 253.309 464.34ZM255.327 466.971V486.83H251.218V466.971H255.327ZM270.02 466.647C271.581 466.647 272.975 466.971 274.2 467.62C275.45 468.269 276.423 469.23 277.119 470.503C277.816 471.777 278.165 473.315 278.165 475.117V486.83H274.092V475.729C274.092 473.951 273.648 472.594 272.759 471.657C271.87 470.696 270.656 470.215 269.119 470.215C267.581 470.215 266.355 470.696 265.442 471.657C264.553 472.594 264.109 473.951 264.109 475.729V486.83H260V466.971H264.109V469.242C264.782 468.425 265.635 467.788 266.668 467.332C267.725 466.875 268.842 466.647 270.02 466.647ZM284.775 464.34C284.03 464.34 283.405 464.088 282.901 463.584C282.396 463.079 282.144 462.454 282.144 461.71C282.144 460.965 282.396 460.34 282.901 459.835C283.405 459.331 284.03 459.079 284.775 459.079C285.496 459.079 286.108 459.331 286.613 459.835C287.117 460.34 287.37 460.965 287.37 461.71C287.37 462.454 287.117 463.079 286.613 463.584C286.108 464.088 285.496 464.34 284.775 464.34ZM286.793 466.971V486.83H282.685V466.971H286.793ZM315.505 466.647C317.067 466.647 318.461 466.971 319.686 467.62C320.935 468.269 321.909 469.23 322.605 470.503C323.326 471.777 323.686 473.315 323.686 475.117V486.83H319.614V475.729C319.614 473.951 319.169 472.594 318.28 471.657C317.391 470.696 316.178 470.215 314.64 470.215C313.103 470.215 311.877 470.696 310.964 471.657C310.075 472.594 309.631 473.951 309.631 475.729V486.83H305.558V475.729C305.558 473.951 305.114 472.594 304.225 471.657C303.336 470.696 302.122 470.215 300.585 470.215C299.047 470.215 297.822 470.696 296.909 471.657C296.02 472.594 295.575 473.951 295.575 475.729V486.83H291.467V466.971H295.575V469.242C296.248 468.425 297.101 467.788 298.134 467.332C299.167 466.875 300.272 466.647 301.45 466.647C303.035 466.647 304.453 466.983 305.702 467.656C306.952 468.329 307.913 469.302 308.586 470.575C309.186 469.374 310.123 468.425 311.397 467.728C312.67 467.007 314.04 466.647 315.505 466.647ZM326.824 476.81C326.824 474.816 327.233 473.05 328.05 471.512C328.891 469.975 330.02 468.785 331.437 467.945C332.879 467.08 334.465 466.647 336.195 466.647C337.756 466.647 339.114 466.959 340.267 467.584C341.445 468.185 342.382 468.942 343.078 469.855V466.971H347.223V486.83H343.078V483.874C342.382 484.811 341.433 485.592 340.231 486.217C339.03 486.842 337.66 487.154 336.123 487.154C334.417 487.154 332.855 486.721 331.437 485.857C330.02 484.968 328.891 483.742 328.05 482.18C327.233 480.595 326.824 478.805 326.824 476.81ZM343.078 476.882C343.078 475.513 342.79 474.324 342.213 473.315C341.661 472.305 340.928 471.537 340.015 471.008C339.102 470.479 338.117 470.215 337.06 470.215C336.002 470.215 335.017 470.479 334.104 471.008C333.191 471.512 332.446 472.269 331.87 473.278C331.317 474.264 331.041 475.441 331.041 476.81C331.041 478.18 331.317 479.381 331.87 480.414C332.446 481.448 333.191 482.24 334.104 482.793C335.041 483.322 336.026 483.586 337.06 483.586C338.117 483.586 339.102 483.322 340.015 482.793C340.928 482.264 341.661 481.496 342.213 480.487C342.79 479.453 343.078 478.252 343.078 476.882ZM356.007 460.16V486.83H351.899V460.16H356.007ZM386.225 479.694C386.225 480.895 385.924 482.024 385.324 483.081C384.747 484.139 383.882 485.028 382.729 485.748C381.6 486.469 380.254 486.902 378.692 487.046V489.965H376.35V487.046C374.091 486.83 372.265 486.121 370.872 484.919C369.478 483.718 368.781 482.132 368.781 480.162H373.178C373.25 481.099 373.551 481.88 374.079 482.505C374.608 483.105 375.365 483.49 376.35 483.658V475.729C374.74 475.321 373.43 474.912 372.421 474.504C371.412 474.071 370.547 473.399 369.826 472.486C369.13 471.573 368.781 470.323 368.781 468.737C368.781 466.743 369.478 465.097 370.872 463.8C372.265 462.478 374.091 461.71 376.35 461.493V458.574H378.692V461.493C380.807 461.686 382.501 462.358 383.774 463.512C385.071 464.641 385.804 466.203 385.972 468.197H381.575C381.503 467.452 381.215 466.791 380.711 466.215C380.206 465.614 379.533 465.205 378.692 464.989V472.774C380.302 473.158 381.612 473.567 382.621 473.999C383.63 474.408 384.483 475.068 385.18 475.981C385.876 476.87 386.225 478.108 386.225 479.694ZM372.962 468.521C372.962 469.506 373.25 470.275 373.827 470.828C374.428 471.38 375.268 471.825 376.35 472.161V464.881C375.317 465.001 374.488 465.374 373.863 465.998C373.262 466.623 372.962 467.464 372.962 468.521ZM378.692 483.658C379.749 483.49 380.578 483.069 381.179 482.397C381.78 481.7 382.08 480.871 382.08 479.91C382.08 478.949 381.78 478.204 381.179 477.675C380.602 477.123 379.773 476.678 378.692 476.342V483.658ZM390.96 464.304V460.556H398.456V486.83H394.312V464.304H390.96ZM403.38 473.351C403.38 469.194 404.077 465.95 405.47 463.62C406.888 461.265 409.314 460.088 412.75 460.088C416.186 460.088 418.601 461.265 419.994 463.62C421.412 465.95 422.121 469.194 422.121 473.351C422.121 477.555 421.412 480.847 419.994 483.226C418.601 485.58 416.186 486.758 412.75 486.758C409.314 486.758 406.888 485.58 405.47 483.226C404.077 480.847 403.38 477.555 403.38 473.351ZM418.084 473.351C418.084 471.404 417.952 469.759 417.688 468.413C417.448 467.068 416.943 465.974 416.174 465.133C415.405 464.268 414.264 463.836 412.75 463.836C411.237 463.836 410.095 464.268 409.326 465.133C408.558 465.974 408.041 467.068 407.777 468.413C407.536 469.759 407.416 471.404 407.416 473.351C407.416 475.369 407.536 477.063 407.777 478.432C408.017 479.802 408.522 480.907 409.29 481.748C410.083 482.589 411.237 483.009 412.75 483.009C414.264 483.009 415.405 482.589 416.174 481.748C416.967 480.907 417.484 479.802 417.724 478.432C417.964 477.063 418.084 475.369 418.084 473.351ZM425.747 473.351C425.747 469.194 426.444 465.95 427.838 463.62C429.255 461.265 431.682 460.088 435.118 460.088C438.554 460.088 440.968 461.265 442.362 463.62C443.779 465.95 444.488 469.194 444.488 473.351C444.488 477.555 443.779 480.847 442.362 483.226C440.968 485.58 438.554 486.758 435.118 486.758C431.682 486.758 429.255 485.58 427.838 483.226C426.444 480.847 425.747 477.555 425.747 473.351ZM440.452 473.351C440.452 471.404 440.32 469.759 440.055 468.413C439.815 467.068 439.31 465.974 438.542 465.133C437.773 464.268 436.631 463.836 435.118 463.836C433.604 463.836 432.463 464.268 431.694 465.133C430.925 465.974 430.408 467.068 430.144 468.413C429.904 469.759 429.784 471.404 429.784 473.351C429.784 475.369 429.904 477.063 430.144 478.432C430.384 479.802 430.889 480.907 431.658 481.748C432.451 482.589 433.604 483.009 435.118 483.009C436.631 483.009 437.773 482.589 438.542 481.748C439.334 480.907 439.851 479.802 440.091 478.432C440.332 477.063 440.452 475.369 440.452 473.351ZM465.297 466.647C466.835 466.647 468.193 466.959 469.37 467.584C470.571 468.185 471.508 468.942 472.181 469.855V466.971H476.326V487.154C476.326 488.98 475.941 490.602 475.172 492.019C474.404 493.461 473.286 494.59 471.821 495.407C470.379 496.224 468.649 496.633 466.631 496.633C463.94 496.633 461.705 495.996 459.927 494.722C458.15 493.473 457.14 491.767 456.9 489.605H460.973C461.285 490.638 461.946 491.467 462.955 492.091C463.988 492.74 465.213 493.065 466.631 493.065C468.289 493.065 469.622 492.56 470.631 491.551C471.665 490.542 472.181 489.076 472.181 487.154V483.838C471.484 484.775 470.535 485.568 469.334 486.217C468.157 486.842 466.811 487.154 465.297 487.154C463.568 487.154 461.982 486.721 460.54 485.857C459.123 484.968 457.993 483.742 457.152 482.18C456.335 480.595 455.927 478.805 455.927 476.81C455.927 474.816 456.335 473.05 457.152 471.512C457.993 469.975 459.123 468.785 460.54 467.945C461.982 467.08 463.568 466.647 465.297 466.647ZM472.181 476.882C472.181 475.513 471.893 474.324 471.316 473.315C470.764 472.305 470.031 471.537 469.118 471.008C468.205 470.479 467.22 470.215 466.162 470.215C465.105 470.215 464.12 470.479 463.207 471.008C462.294 471.512 461.549 472.269 460.973 473.278C460.42 474.264 460.144 475.441 460.144 476.81C460.144 478.18 460.42 479.381 460.973 480.414C461.549 481.448 462.294 482.24 463.207 482.793C464.144 483.322 465.129 483.586 466.162 483.586C467.22 483.586 468.205 483.322 469.118 482.793C470.031 482.264 470.764 481.496 471.316 480.487C471.893 479.453 472.181 478.252 472.181 476.882ZM499.202 476.414C499.202 477.159 499.154 477.832 499.058 478.432H483.885C484.005 480.018 484.593 481.291 485.651 482.252C486.708 483.214 488.005 483.694 489.543 483.694C491.753 483.694 493.315 482.769 494.228 480.919H498.661C498.06 482.745 496.967 484.247 495.381 485.424C493.82 486.577 491.874 487.154 489.543 487.154C487.645 487.154 485.939 486.733 484.425 485.893C482.936 485.028 481.758 483.826 480.893 482.289C480.052 480.727 479.632 478.925 479.632 476.882C479.632 474.84 480.04 473.05 480.857 471.512C481.698 469.951 482.864 468.749 484.353 467.908C485.867 467.068 487.597 466.647 489.543 466.647C491.417 466.647 493.087 467.056 494.553 467.872C496.018 468.689 497.159 469.843 497.976 471.332C498.793 472.798 499.202 474.492 499.202 476.414ZM494.913 475.117C494.889 473.603 494.348 472.389 493.291 471.476C492.234 470.563 490.925 470.107 489.363 470.107C487.945 470.107 486.732 470.563 485.723 471.476C484.714 472.365 484.113 473.579 483.921 475.117H494.913ZM507.318 470.323V481.315C507.318 482.06 507.486 482.601 507.822 482.937C508.183 483.25 508.783 483.406 509.624 483.406H512.147V486.83H508.903C507.053 486.83 505.636 486.397 504.651 485.532C503.665 484.667 503.173 483.262 503.173 481.315V470.323H500.83V466.971H503.173V462.034H507.318V466.971H512.147V470.323H507.318ZM523.241 467.044C523.386 464.809 524.239 463.067 525.8 461.818C527.386 460.568 529.404 459.944 531.855 459.944C533.537 459.944 534.991 460.244 536.216 460.845C537.441 461.445 538.366 462.262 538.991 463.295C539.616 464.328 539.928 465.494 539.928 466.791C539.928 468.281 539.532 469.554 538.739 470.611C537.946 471.669 536.997 472.377 535.892 472.738V472.882C537.309 473.315 538.414 474.107 539.207 475.261C540 476.39 540.397 477.844 540.397 479.622C540.397 481.039 540.072 482.301 539.423 483.406C538.775 484.511 537.814 485.388 536.54 486.037C535.267 486.661 533.741 486.974 531.963 486.974C529.368 486.974 527.23 486.313 525.548 484.992C523.89 483.646 523.001 481.724 522.881 479.225H526.845C526.942 480.499 527.434 481.544 528.323 482.361C529.212 483.153 530.413 483.55 531.927 483.55C533.393 483.55 534.522 483.153 535.315 482.361C536.108 481.544 536.504 480.499 536.504 479.225C536.504 477.543 535.964 476.354 534.882 475.657C533.825 474.936 532.191 474.576 529.981 474.576H529.044V471.188H530.017C531.963 471.164 533.441 470.84 534.45 470.215C535.483 469.59 536 468.605 536 467.26C536 466.106 535.627 465.193 534.882 464.521C534.138 463.824 533.08 463.476 531.711 463.476C530.365 463.476 529.32 463.824 528.575 464.521C527.831 465.193 527.386 466.034 527.242 467.044H523.241ZM543.992 473.351C543.992 469.194 544.688 465.95 546.082 463.62C547.499 461.265 549.926 460.088 553.362 460.088C556.798 460.088 559.213 461.265 560.606 463.62C562.024 465.95 562.732 469.194 562.732 473.351C562.732 477.555 562.024 480.847 560.606 483.226C559.213 485.58 556.798 486.758 553.362 486.758C549.926 486.758 547.499 485.58 546.082 483.226C544.688 480.847 543.992 477.555 543.992 473.351ZM558.696 473.351C558.696 471.404 558.564 469.759 558.3 468.413C558.059 467.068 557.555 465.974 556.786 465.133C556.017 464.268 554.876 463.836 553.362 463.836C551.848 463.836 550.707 464.268 549.938 465.133C549.169 465.974 548.653 467.068 548.388 468.413C548.148 469.759 548.028 471.404 548.028 473.351C548.028 475.369 548.148 477.063 548.388 478.432C548.629 479.802 549.133 480.907 549.902 481.748C550.695 482.589 551.848 483.009 553.362 483.009C554.876 483.009 556.017 482.589 556.786 481.748C557.579 480.907 558.095 479.802 558.336 478.432C558.576 477.063 558.696 475.369 558.696 473.351ZM565.71 466.899C565.71 465.145 566.215 463.776 567.224 462.791C568.257 461.782 569.579 461.277 571.188 461.277C572.798 461.277 574.108 461.782 575.117 462.791C576.15 463.776 576.667 465.145 576.667 466.899C576.667 468.653 576.15 470.035 575.117 471.044C574.108 472.053 572.798 472.558 571.188 472.558C569.579 472.558 568.257 472.053 567.224 471.044C566.215 470.035 565.71 468.653 565.71 466.899ZM587.695 461.746L573.315 486.83H569.278L583.658 461.746H587.695ZM571.188 463.764C569.675 463.764 568.918 464.809 568.918 466.899C568.918 469.014 569.675 470.071 571.188 470.071C571.909 470.071 572.462 469.819 572.846 469.314C573.255 468.785 573.459 467.981 573.459 466.899C573.459 464.809 572.702 463.764 571.188 463.764ZM580.379 481.64C580.379 479.886 580.883 478.516 581.892 477.531C582.925 476.522 584.247 476.018 585.857 476.018C587.443 476.018 588.74 476.522 589.749 477.531C590.782 478.516 591.299 479.886 591.299 481.64C591.299 483.394 590.782 484.775 589.749 485.784C588.74 486.794 587.443 487.298 585.857 487.298C584.247 487.298 582.925 486.794 581.892 485.784C580.883 484.775 580.379 483.394 580.379 481.64ZM585.821 478.504C584.307 478.504 583.55 479.549 583.55 481.64C583.55 483.73 584.307 484.775 585.821 484.775C587.334 484.775 588.091 483.73 588.091 481.64C588.091 479.549 587.334 478.504 585.821 478.504ZM612.048 487.154C610.173 487.154 608.48 486.733 606.966 485.893C605.452 485.028 604.263 483.826 603.398 482.289C602.533 480.727 602.1 478.925 602.1 476.882C602.1 474.864 602.545 473.074 603.434 471.512C604.323 469.951 605.536 468.749 607.074 467.908C608.612 467.068 610.33 466.647 612.228 466.647C614.126 466.647 615.844 467.068 617.382 467.908C618.919 468.749 620.133 469.951 621.022 471.512C621.911 473.074 622.355 474.864 622.355 476.882C622.355 478.901 621.899 480.691 620.986 482.252C620.073 483.814 618.823 485.028 617.237 485.893C615.676 486.733 613.946 487.154 612.048 487.154ZM612.048 483.586C613.105 483.586 614.09 483.334 615.003 482.829C615.94 482.325 616.697 481.568 617.273 480.559C617.85 479.549 618.138 478.324 618.138 476.882C618.138 475.441 617.862 474.228 617.309 473.242C616.757 472.233 616.024 471.476 615.111 470.972C614.198 470.467 613.213 470.215 612.156 470.215C611.099 470.215 610.113 470.467 609.2 470.972C608.311 471.476 607.603 472.233 607.074 473.242C606.545 474.228 606.281 475.441 606.281 476.882C606.281 479.021 606.822 480.679 607.903 481.856C609.008 483.009 610.39 483.586 612.048 483.586ZM634.021 470.323H630.345V486.83H626.2V470.323H623.858V466.971H626.2V465.566C626.2 463.283 626.801 461.625 628.002 460.592C629.228 459.535 631.138 459.007 633.733 459.007V462.43C632.483 462.43 631.606 462.671 631.102 463.151C630.597 463.608 630.345 464.413 630.345 465.566V466.971H634.021V470.323ZM645.267 470.323H641.591V486.83H637.446V470.323H635.103V466.971H637.446V465.566C637.446 463.283 638.047 461.625 639.248 460.592C640.473 459.535 642.384 459.007 644.979 459.007V462.43C643.729 462.43 642.852 462.671 642.348 463.151C641.843 463.608 641.591 464.413 641.591 465.566V466.971H645.267V470.323ZM100.88 535.153L106.502 518.971H110.863L103.294 538.83H98.3929L90.8605 518.971H95.2574L100.88 535.153ZM121.861 539.154C119.987 539.154 118.293 538.733 116.78 537.893C115.266 537.028 114.077 535.826 113.212 534.289C112.347 532.727 111.914 530.925 111.914 528.882C111.914 526.864 112.359 525.074 113.248 523.512C114.137 521.951 115.35 520.749 116.888 519.908C118.425 519.068 120.143 518.647 122.042 518.647C123.94 518.647 125.658 519.068 127.195 519.908C128.733 520.749 129.946 521.951 130.835 523.512C131.724 525.074 132.169 526.864 132.169 528.882C132.169 530.901 131.712 532.691 130.799 534.252C129.886 535.814 128.637 537.028 127.051 537.893C125.489 538.733 123.759 539.154 121.861 539.154ZM121.861 535.586C122.918 535.586 123.904 535.334 124.817 534.829C125.754 534.325 126.51 533.568 127.087 532.559C127.664 531.549 127.952 530.324 127.952 528.882C127.952 527.441 127.676 526.228 127.123 525.242C126.571 524.233 125.838 523.476 124.925 522.972C124.012 522.467 123.027 522.215 121.969 522.215C120.912 522.215 119.927 522.467 119.014 522.972C118.125 523.476 117.416 524.233 116.888 525.242C116.359 526.228 116.095 527.441 116.095 528.882C116.095 531.021 116.635 532.679 117.717 533.856C118.822 535.009 120.203 535.586 121.861 535.586ZM153.494 518.971V538.83H149.385V536.487C148.736 537.304 147.883 537.953 146.826 538.433C145.793 538.89 144.688 539.118 143.51 539.118C141.949 539.118 140.543 538.794 139.294 538.145C138.068 537.496 137.095 536.535 136.375 535.262C135.678 533.988 135.329 532.45 135.329 530.648V518.971H139.402V530.036C139.402 531.814 139.846 533.183 140.735 534.144C141.624 535.081 142.838 535.55 144.375 535.55C145.913 535.55 147.127 535.081 148.016 534.144C148.929 533.183 149.385 531.814 149.385 530.036V518.971H153.494ZM156.824 528.882C156.824 526.84 157.233 525.05 158.05 523.512C158.891 521.951 160.044 520.749 161.509 519.908C162.975 519.068 164.657 518.647 166.555 518.647C168.958 518.647 170.94 519.224 172.502 520.377C174.088 521.506 175.157 523.128 175.709 525.242H171.276C170.916 524.257 170.339 523.488 169.546 522.936C168.754 522.383 167.756 522.107 166.555 522.107C164.873 522.107 163.528 522.708 162.519 523.909C161.534 525.086 161.041 526.744 161.041 528.882C161.041 531.021 161.534 532.691 162.519 533.892C163.528 535.093 164.873 535.694 166.555 535.694C168.934 535.694 170.508 534.649 171.276 532.559H175.709C175.133 534.577 174.051 536.187 172.466 537.388C170.88 538.565 168.91 539.154 166.555 539.154C164.657 539.154 162.975 538.733 161.509 537.893C160.044 537.028 158.891 535.826 158.05 534.289C157.233 532.727 156.824 530.925 156.824 528.882ZM189.354 518.647C190.868 518.647 192.214 518.971 193.391 519.62C194.592 520.269 195.529 521.23 196.202 522.503C196.899 523.777 197.247 525.315 197.247 527.117V538.83H193.175V527.729C193.175 525.951 192.73 524.594 191.841 523.657C190.952 522.696 189.739 522.215 188.201 522.215C186.663 522.215 185.438 522.696 184.525 523.657C183.636 524.594 183.192 525.951 183.192 527.729V538.83H179.083V512.16H183.192V521.278C183.888 520.437 184.765 519.788 185.823 519.332C186.904 518.875 188.081 518.647 189.354 518.647ZM219.968 528.414C219.968 529.159 219.919 529.832 219.823 530.432H204.65C204.771 532.018 205.359 533.291 206.416 534.252C207.474 535.214 208.771 535.694 210.309 535.694C212.519 535.694 214.081 534.769 214.994 532.919H219.427C218.826 534.745 217.733 536.247 216.147 537.424C214.586 538.577 212.639 539.154 210.309 539.154C208.411 539.154 206.705 538.733 205.191 537.893C203.701 537.028 202.524 535.826 201.659 534.289C200.818 532.727 200.398 530.925 200.398 528.882C200.398 526.84 200.806 525.05 201.623 523.512C202.464 521.951 203.629 520.749 205.119 519.908C206.633 519.068 208.363 518.647 210.309 518.647C212.183 518.647 213.853 519.056 215.318 519.872C216.784 520.689 217.925 521.843 218.742 523.332C219.559 524.798 219.968 526.492 219.968 528.414ZM215.679 527.117C215.655 525.603 215.114 524.389 214.057 523.476C213 522.563 211.69 522.107 210.129 522.107C208.711 522.107 207.498 522.563 206.489 523.476C205.479 524.365 204.879 525.579 204.686 527.117H215.679ZM227.399 521.855C227.999 520.846 228.792 520.065 229.777 519.512C230.786 518.935 231.976 518.647 233.345 518.647V522.9H232.3C230.69 522.9 229.465 523.308 228.624 524.125C227.807 524.942 227.399 526.36 227.399 528.378V538.83H223.29V518.971H227.399V521.855ZM243.673 528.882C243.673 526.84 244.081 525.05 244.898 523.512C245.739 521.951 246.892 520.749 248.358 519.908C249.824 519.068 251.505 518.647 253.404 518.647C255.806 518.647 257.788 519.224 259.35 520.377C260.936 521.506 262.005 523.128 262.558 525.242H258.125C257.764 524.257 257.188 523.488 256.395 522.936C255.602 522.383 254.605 522.107 253.404 522.107C251.722 522.107 250.376 522.708 249.367 523.909C248.382 525.086 247.889 526.744 247.889 528.882C247.889 531.021 248.382 532.691 249.367 533.892C250.376 535.093 251.722 535.694 253.404 535.694C255.782 535.694 257.356 534.649 258.125 532.559H262.558C261.981 534.577 260.9 536.187 259.314 537.388C257.728 538.565 255.758 539.154 253.404 539.154C251.505 539.154 249.824 538.733 248.358 537.893C246.892 537.028 245.739 535.826 244.898 534.289C244.081 532.727 243.673 530.925 243.673 528.882ZM274.545 539.154C272.671 539.154 270.977 538.733 269.463 537.893C267.95 537.028 266.76 535.826 265.895 534.289C265.03 532.727 264.598 530.925 264.598 528.882C264.598 526.864 265.042 525.074 265.931 523.512C266.82 521.951 268.034 520.749 269.572 519.908C271.109 519.068 272.827 518.647 274.725 518.647C276.623 518.647 278.341 519.068 279.879 519.908C281.417 520.749 282.63 521.951 283.519 523.512C284.408 525.074 284.853 526.864 284.853 528.882C284.853 530.901 284.396 532.691 283.483 534.252C282.57 535.814 281.321 537.028 279.735 537.893C278.173 538.733 276.443 539.154 274.545 539.154ZM274.545 535.586C275.602 535.586 276.587 535.334 277.5 534.829C278.437 534.325 279.194 533.568 279.771 532.559C280.348 531.549 280.636 530.324 280.636 528.882C280.636 527.441 280.36 526.228 279.807 525.242C279.254 524.233 278.522 523.476 277.609 522.972C276.695 522.467 275.71 522.215 274.653 522.215C273.596 522.215 272.611 522.467 271.698 522.972C270.809 523.476 270.1 524.233 269.572 525.242C269.043 526.228 268.779 527.441 268.779 528.882C268.779 531.021 269.319 532.679 270.4 533.856C271.506 535.009 272.887 535.586 274.545 535.586ZM286.824 528.81C286.824 526.816 287.232 525.05 288.049 523.512C288.89 521.975 290.019 520.785 291.437 519.945C292.879 519.08 294.476 518.647 296.23 518.647C297.528 518.647 298.801 518.935 300.051 519.512C301.324 520.065 302.333 520.809 303.078 521.747V512.16H307.223V538.83H303.078V535.838C302.405 536.799 301.468 537.592 300.267 538.217C299.09 538.842 297.732 539.154 296.194 539.154C294.464 539.154 292.879 538.721 291.437 537.857C290.019 536.968 288.89 535.742 288.049 534.18C287.232 532.595 286.824 530.805 286.824 528.81ZM303.078 528.882C303.078 527.513 302.79 526.324 302.213 525.315C301.66 524.305 300.928 523.537 300.015 523.008C299.102 522.479 298.116 522.215 297.059 522.215C296.002 522.215 295.017 522.479 294.104 523.008C293.191 523.512 292.446 524.269 291.869 525.278C291.317 526.264 291.041 527.441 291.041 528.81C291.041 530.18 291.317 531.381 291.869 532.414C292.446 533.448 293.191 534.24 294.104 534.793C295.041 535.322 296.026 535.586 297.059 535.586C298.116 535.586 299.102 535.322 300.015 534.793C300.928 534.264 301.66 533.496 302.213 532.487C302.79 531.453 303.078 530.252 303.078 528.882ZM330.099 528.414C330.099 529.159 330.05 529.832 329.954 530.432H314.781C314.902 532.018 315.49 533.291 316.547 534.252C317.605 535.214 318.902 535.694 320.44 535.694C322.65 535.694 324.212 534.769 325.125 532.919H329.558C328.957 534.745 327.864 536.247 326.278 537.424C324.717 538.577 322.77 539.154 320.44 539.154C318.542 539.154 316.836 538.733 315.322 537.893C313.832 537.028 312.655 535.826 311.79 534.289C310.949 532.727 310.529 530.925 310.529 528.882C310.529 526.84 310.937 525.05 311.754 523.512C312.595 521.951 313.76 520.749 315.25 519.908C316.764 519.068 318.494 518.647 320.44 518.647C322.314 518.647 323.984 519.056 325.449 519.872C326.915 520.689 328.056 521.843 328.873 523.332C329.69 524.798 330.099 526.492 330.099 528.414ZM325.81 527.117C325.786 525.603 325.245 524.389 324.188 523.476C323.131 522.563 321.821 522.107 320.26 522.107C318.842 522.107 317.629 522.563 316.62 523.476C315.61 524.365 315.01 525.579 314.817 527.117H325.81ZM350.387 522.323H346.711V538.83H342.567V522.323H340.224V518.971H342.567V517.566C342.567 515.283 343.167 513.625 344.369 512.592C345.594 511.535 347.504 511.007 350.099 511.007V514.43C348.85 514.43 347.973 514.671 347.468 515.151C346.964 515.608 346.711 516.413 346.711 517.566V518.971H350.387V522.323ZM361.921 539.154C360.047 539.154 358.354 538.733 356.84 537.893C355.326 537.028 354.137 535.826 353.272 534.289C352.407 532.727 351.974 530.925 351.974 528.882C351.974 526.864 352.419 525.074 353.308 523.512C354.197 521.951 355.41 520.749 356.948 519.908C358.486 519.068 360.204 518.647 362.102 518.647C364 518.647 365.718 519.068 367.255 519.908C368.793 520.749 370.007 521.951 370.895 523.512C371.784 525.074 372.229 526.864 372.229 528.882C372.229 530.901 371.772 532.691 370.859 534.252C369.946 535.814 368.697 537.028 367.111 537.893C365.55 538.733 363.82 539.154 361.921 539.154ZM361.921 535.586C362.979 535.586 363.964 535.334 364.877 534.829C365.814 534.325 366.571 533.568 367.147 532.559C367.724 531.549 368.012 530.324 368.012 528.882C368.012 527.441 367.736 526.228 367.183 525.242C366.631 524.233 365.898 523.476 364.985 522.972C364.072 522.467 363.087 522.215 362.03 522.215C360.972 522.215 359.987 522.467 359.074 522.972C358.185 523.476 357.477 524.233 356.948 525.242C356.419 526.228 356.155 527.441 356.155 528.882C356.155 531.021 356.696 532.679 357.777 533.856C358.882 535.009 360.264 535.586 361.921 535.586ZM379.678 521.855C380.279 520.846 381.072 520.065 382.057 519.512C383.066 518.935 384.255 518.647 385.625 518.647V522.9H384.58C382.97 522.9 381.745 523.308 380.904 524.125C380.087 524.942 379.678 526.36 379.678 528.378V538.83H375.57V518.971H379.678V521.855ZM415.198 518.971L403.016 548.164H398.764L402.8 538.505L394.979 518.971H399.556L405.143 534.108L410.945 518.971H415.198ZM426.191 539.154C424.317 539.154 422.623 538.733 421.11 537.893C419.596 537.028 418.407 535.826 417.542 534.289C416.677 532.727 416.244 530.925 416.244 528.882C416.244 526.864 416.689 525.074 417.578 523.512C418.467 521.951 419.68 520.749 421.218 519.908C422.755 519.068 424.473 518.647 426.372 518.647C428.27 518.647 429.988 519.068 431.525 519.908C433.063 520.749 434.276 521.951 435.165 523.512C436.054 525.074 436.499 526.864 436.499 528.882C436.499 530.901 436.042 532.691 435.129 534.252C434.216 535.814 432.967 537.028 431.381 537.893C429.819 538.733 428.089 539.154 426.191 539.154ZM426.191 535.586C427.249 535.586 428.234 535.334 429.147 534.829C430.084 534.325 430.841 533.568 431.417 532.559C431.994 531.549 432.282 530.324 432.282 528.882C432.282 527.441 432.006 526.228 431.453 525.242C430.901 524.233 430.168 523.476 429.255 522.972C428.342 522.467 427.357 522.215 426.299 522.215C425.242 522.215 424.257 522.467 423.344 522.972C422.455 523.476 421.746 524.233 421.218 525.242C420.689 526.228 420.425 527.441 420.425 528.882C420.425 531.021 420.965 532.679 422.047 533.856C423.152 535.009 424.533 535.586 426.191 535.586ZM457.824 518.971V538.83H453.715V536.487C453.066 537.304 452.213 537.953 451.156 538.433C450.123 538.89 449.018 539.118 447.841 539.118C446.279 539.118 444.873 538.794 443.624 538.145C442.398 537.496 441.425 536.535 440.705 535.262C440.008 533.988 439.659 532.45 439.659 530.648V518.971H443.732V530.036C443.732 531.814 444.176 533.183 445.065 534.144C445.954 535.081 447.168 535.55 448.705 535.55C450.243 535.55 451.457 535.081 452.346 534.144C453.259 533.183 453.715 531.814 453.715 530.036V518.971H457.824ZM466.632 521.855C467.233 520.846 468.026 520.065 469.011 519.512C470.02 518.935 471.209 518.647 472.579 518.647V522.9H471.534C469.924 522.9 468.699 523.308 467.858 524.125C467.041 524.942 466.632 526.36 466.632 528.378V538.83H462.524V518.971H466.632V521.855ZM494.295 518.647C495.857 518.647 497.251 518.971 498.476 519.62C499.725 520.269 500.698 521.23 501.395 522.503C502.092 523.777 502.44 525.315 502.44 527.117V538.83H498.368V527.729C498.368 525.951 497.923 524.594 497.034 523.657C496.145 522.696 494.932 522.215 493.394 522.215C491.857 522.215 490.631 522.696 489.718 523.657C488.829 524.594 488.385 525.951 488.385 527.729V538.83H484.276V518.971H488.385V521.242C489.057 520.425 489.91 519.788 490.943 519.332C492.001 518.875 493.118 518.647 494.295 518.647ZM525.161 528.414C525.161 529.159 525.113 529.832 525.016 530.432H509.843C509.964 532.018 510.552 533.291 511.609 534.252C512.667 535.214 513.964 535.694 515.502 535.694C517.712 535.694 519.274 534.769 520.187 532.919H524.62C524.019 534.745 522.926 536.247 521.34 537.424C519.779 538.577 517.832 539.154 515.502 539.154C513.604 539.154 511.898 538.733 510.384 537.893C508.894 537.028 507.717 535.826 506.852 534.289C506.011 532.727 505.591 530.925 505.591 528.882C505.591 526.84 505.999 525.05 506.816 523.512C507.657 521.951 508.822 520.749 510.312 519.908C511.826 519.068 513.556 518.647 515.502 518.647C517.376 518.647 519.046 519.056 520.511 519.872C521.977 520.689 523.118 521.843 523.935 523.332C524.752 524.798 525.161 526.492 525.161 528.414ZM520.872 527.117C520.848 525.603 520.307 524.389 519.25 523.476C518.193 522.563 516.883 522.107 515.322 522.107C513.904 522.107 512.691 522.563 511.682 523.476C510.672 524.365 510.072 525.579 509.88 527.117H520.872ZM536.989 528.774L543.404 538.83H538.754L534.466 532.09L530.429 538.83H526.14L532.556 529.063L526.14 518.971H530.79L535.078 525.711L539.115 518.971H543.404L536.989 528.774ZM550.54 522.323V533.315C550.54 534.06 550.709 534.601 551.045 534.937C551.405 535.25 552.006 535.406 552.847 535.406H555.37V538.83H552.126C550.276 538.83 548.859 538.397 547.873 537.532C546.888 536.667 546.396 535.262 546.396 533.315V522.323H544.053V518.971H546.396V514.034H550.54V518.971H555.37V522.323H550.54ZM571.186 521.891C571.882 520.978 572.831 520.209 574.033 519.584C575.234 518.959 576.592 518.647 578.105 518.647C579.835 518.647 581.409 519.08 582.827 519.945C584.268 520.785 585.397 521.975 586.214 523.512C587.031 525.05 587.44 526.816 587.44 528.81C587.44 530.805 587.031 532.595 586.214 534.18C585.397 535.742 584.268 536.968 582.827 537.857C581.409 538.721 579.835 539.154 578.105 539.154C576.592 539.154 575.246 538.854 574.069 538.253C572.891 537.628 571.93 536.859 571.186 535.946V548.272H567.077V518.971H571.186V521.891ZM583.259 528.81C583.259 527.441 582.971 526.264 582.394 525.278C581.841 524.269 581.097 523.512 580.16 523.008C579.247 522.479 578.261 522.215 577.204 522.215C576.171 522.215 575.186 522.479 574.249 523.008C573.336 523.537 572.591 524.305 572.015 525.315C571.462 526.324 571.186 527.513 571.186 528.882C571.186 530.252 571.462 531.453 572.015 532.487C572.591 533.496 573.336 534.264 574.249 534.793C575.186 535.322 576.171 535.586 577.204 535.586C578.261 535.586 579.247 535.322 580.16 534.793C581.097 534.24 581.841 533.448 582.394 532.414C582.971 531.381 583.259 530.18 583.259 528.81ZM608.766 518.971V538.83H604.657V536.487C604.009 537.304 603.156 537.953 602.099 538.433C601.065 538.89 599.96 539.118 598.783 539.118C597.221 539.118 595.816 538.794 594.566 538.145C593.341 537.496 592.368 536.535 591.647 535.262C590.95 533.988 590.602 532.45 590.602 530.648V518.971H594.674V530.036C594.674 531.814 595.119 533.183 596.008 534.144C596.897 535.081 598.11 535.55 599.648 535.55C601.186 535.55 602.399 535.081 603.288 534.144C604.201 533.183 604.657 531.814 604.657 530.036V518.971H608.766ZM617.575 521.855C618.175 520.846 618.968 520.065 619.953 519.512C620.963 518.935 622.152 518.647 623.521 518.647V522.9H622.476C620.866 522.9 619.641 523.308 618.8 524.125C617.983 524.942 617.575 526.36 617.575 528.378V538.83H613.466V518.971H617.575V521.855ZM625.208 528.882C625.208 526.84 625.616 525.05 626.433 523.512C627.274 521.951 628.427 520.749 629.893 519.908C631.358 519.068 633.04 518.647 634.938 518.647C637.341 518.647 639.323 519.224 640.885 520.377C642.471 521.506 643.54 523.128 644.093 525.242H639.66C639.299 524.257 638.723 523.488 637.93 522.936C637.137 522.383 636.14 522.107 634.938 522.107C633.257 522.107 631.911 522.708 630.902 523.909C629.917 525.086 629.424 526.744 629.424 528.882C629.424 531.021 629.917 532.691 630.902 533.892C631.911 535.093 633.257 535.694 634.938 535.694C637.317 535.694 638.891 534.649 639.66 532.559H644.093C643.516 534.577 642.435 536.187 640.849 537.388C639.263 538.565 637.293 539.154 634.938 539.154C633.04 539.154 631.358 538.733 629.893 537.893C628.427 537.028 627.274 535.826 626.433 534.289C625.616 532.727 625.208 530.925 625.208 528.882ZM657.738 518.647C659.252 518.647 660.597 518.971 661.774 519.62C662.976 520.269 663.913 521.23 664.585 522.503C665.282 523.777 665.631 525.315 665.631 527.117V538.83H661.558V527.729C661.558 525.951 661.114 524.594 660.225 523.657C659.336 522.696 658.122 522.215 656.585 522.215C655.047 522.215 653.821 522.696 652.908 523.657C652.019 524.594 651.575 525.951 651.575 527.729V538.83H647.466V512.16H651.575V521.278C652.272 520.437 653.149 519.788 654.206 519.332C655.287 518.875 656.464 518.647 657.738 518.647ZM668.781 528.81C668.781 526.816 669.19 525.05 670.006 523.512C670.847 521.975 671.977 520.785 673.394 519.945C674.836 519.08 676.422 518.647 678.152 518.647C679.713 518.647 681.071 518.959 682.224 519.584C683.401 520.185 684.338 520.942 685.035 521.855V518.971H689.18V538.83H685.035V535.874C684.338 536.811 683.389 537.592 682.188 538.217C680.987 538.842 679.617 539.154 678.079 539.154C676.374 539.154 674.812 538.721 673.394 537.857C671.977 536.968 670.847 535.742 670.006 534.18C669.19 532.595 668.781 530.805 668.781 528.81ZM685.035 528.882C685.035 527.513 684.747 526.324 684.17 525.315C683.618 524.305 682.885 523.537 681.972 523.008C681.059 522.479 680.074 522.215 679.016 522.215C677.959 522.215 676.974 522.479 676.061 523.008C675.148 523.512 674.403 524.269 673.827 525.278C673.274 526.264 672.998 527.441 672.998 528.81C672.998 530.18 673.274 531.381 673.827 532.414C674.403 533.448 675.148 534.24 676.061 534.793C676.998 535.322 677.983 535.586 679.016 535.586C680.074 535.586 681.059 535.322 681.972 534.793C682.885 534.264 683.618 533.496 684.17 532.487C684.747 531.453 685.035 530.252 685.035 528.882ZM701.064 539.154C699.502 539.154 698.096 538.878 696.847 538.325C695.621 537.748 694.648 536.98 693.928 536.018C693.207 535.033 692.822 533.94 692.774 532.739H697.027C697.099 533.58 697.496 534.289 698.216 534.865C698.961 535.418 699.886 535.694 700.991 535.694C702.145 535.694 703.034 535.478 703.658 535.045C704.307 534.589 704.632 534.012 704.632 533.315C704.632 532.571 704.271 532.018 703.55 531.658C702.854 531.297 701.736 530.901 700.199 530.468C698.709 530.06 697.496 529.663 696.558 529.279C695.621 528.895 694.805 528.306 694.108 527.513C693.435 526.72 693.099 525.675 693.099 524.377C693.099 523.32 693.411 522.359 694.036 521.494C694.66 520.605 695.549 519.908 696.703 519.404C697.88 518.899 699.225 518.647 700.739 518.647C702.998 518.647 704.812 519.224 706.181 520.377C707.575 521.506 708.32 523.056 708.416 525.026H704.307C704.235 524.137 703.875 523.428 703.226 522.9C702.577 522.371 701.7 522.107 700.595 522.107C699.514 522.107 698.685 522.311 698.108 522.72C697.532 523.128 697.243 523.669 697.243 524.341C697.243 524.87 697.435 525.315 697.82 525.675C698.204 526.035 698.673 526.324 699.225 526.54C699.778 526.732 700.595 526.984 701.676 527.297C703.118 527.681 704.295 528.078 705.208 528.486C706.145 528.87 706.95 529.447 707.623 530.216C708.296 530.985 708.644 532.006 708.668 533.279C708.668 534.409 708.356 535.418 707.731 536.307C707.106 537.196 706.217 537.893 705.064 538.397C703.935 538.902 702.601 539.154 701.064 539.154ZM730.587 528.414C730.587 529.159 730.539 529.832 730.443 530.432H715.27C715.39 532.018 715.979 533.291 717.036 534.252C718.093 535.214 719.39 535.694 720.928 535.694C723.139 535.694 724.7 534.769 725.613 532.919H730.046C729.446 534.745 728.352 536.247 726.767 537.424C725.205 538.577 723.259 539.154 720.928 539.154C719.03 539.154 717.324 538.733 715.81 537.893C714.321 537.028 713.143 535.826 712.278 534.289C711.438 532.727 711.017 530.925 711.017 528.882C711.017 526.84 711.426 525.05 712.242 523.512C713.083 521.951 714.249 520.749 715.738 519.908C717.252 519.068 718.982 518.647 720.928 518.647C722.802 518.647 724.472 519.056 725.938 519.872C727.403 520.689 728.545 521.843 729.362 523.332C730.178 524.798 730.587 526.492 730.587 528.414ZM726.298 527.117C726.274 525.603 725.734 524.389 724.676 523.476C723.619 522.563 722.31 522.107 720.748 522.107C719.33 522.107 718.117 522.563 717.108 523.476C716.099 524.365 715.498 525.579 715.306 527.117H726.298Z" fill="#231300"/>
<path d="M91.4732 597.623V591.893H101.456V618.202H95.0412V597.623H91.4732ZM131.222 592.902V610.129C131.222 612.796 130.465 614.85 128.951 616.292C127.461 617.733 125.443 618.454 122.896 618.454C120.229 618.454 118.091 617.697 116.481 616.184C114.871 614.67 114.066 612.52 114.066 609.732H120.193C120.193 610.79 120.41 611.595 120.842 612.147C121.275 612.676 121.899 612.94 122.716 612.94C123.461 612.94 124.038 612.7 124.446 612.219C124.855 611.739 125.059 611.042 125.059 610.129V592.902H131.222ZM156.779 598.091V618.202H150.616V615.463C149.991 616.352 149.138 617.073 148.057 617.625C147 618.154 145.822 618.418 144.525 618.418C142.987 618.418 141.63 618.082 140.452 617.409C139.275 616.712 138.362 615.715 137.713 614.418C137.065 613.12 136.74 611.595 136.74 609.841V598.091H142.867V609.012C142.867 610.357 143.215 611.402 143.912 612.147C144.609 612.892 145.546 613.264 146.723 613.264C147.925 613.264 148.874 612.892 149.571 612.147C150.267 611.402 150.616 610.357 150.616 609.012V598.091H156.779ZM174.18 597.875C176.534 597.875 178.409 598.644 179.802 600.182C181.22 601.695 181.929 603.786 181.929 606.453V618.202H175.802V607.282C175.802 605.936 175.453 604.891 174.757 604.146C174.06 603.401 173.123 603.029 171.945 603.029C170.768 603.029 169.831 603.401 169.134 604.146C168.437 604.891 168.089 605.936 168.089 607.282V618.202H161.926V598.091H168.089V600.758C168.714 599.869 169.555 599.173 170.612 598.668C171.669 598.14 172.858 597.875 174.18 597.875ZM205.889 607.822C205.889 608.399 205.853 609 205.781 609.624H191.833C191.929 610.874 192.326 611.835 193.023 612.508C193.744 613.156 194.62 613.481 195.654 613.481C197.191 613.481 198.261 612.832 198.861 611.534H205.421C205.084 612.856 204.471 614.045 203.582 615.102C202.718 616.16 201.624 616.989 200.303 617.589C198.981 618.19 197.504 618.49 195.87 618.49C193.9 618.49 192.146 618.07 190.608 617.229C189.07 616.388 187.869 615.187 187.004 613.625C186.139 612.063 185.707 610.237 185.707 608.147C185.707 606.056 186.127 604.23 186.968 602.669C187.833 601.107 189.034 599.905 190.572 599.065C192.11 598.224 193.876 597.803 195.87 597.803C197.816 597.803 199.546 598.212 201.06 599.029C202.573 599.845 203.751 601.011 204.592 602.524C205.457 604.038 205.889 605.804 205.889 607.822ZM199.582 606.201C199.582 605.143 199.222 604.302 198.501 603.678C197.78 603.053 196.879 602.741 195.798 602.741C194.765 602.741 193.888 603.041 193.167 603.642C192.47 604.242 192.038 605.095 191.869 606.201H199.582ZM233.717 602.993V608.111H217.859V602.993H233.717ZM246.943 597.623V591.893H256.926V618.202H250.511V597.623H246.943ZM261.863 604.687C261.863 600.554 262.656 597.299 264.242 594.92C265.851 592.541 268.434 591.352 271.99 591.352C275.546 591.352 278.117 592.541 279.703 594.92C281.313 597.299 282.117 600.554 282.117 604.687C282.117 608.867 281.313 612.147 279.703 614.526C278.117 616.904 275.546 618.094 271.99 618.094C268.434 618.094 265.851 616.904 264.242 614.526C262.656 612.147 261.863 608.867 261.863 604.687ZM276.063 604.687C276.063 602.26 275.798 600.398 275.27 599.101C274.741 597.779 273.648 597.118 271.99 597.118C270.332 597.118 269.239 597.779 268.711 599.101C268.182 600.398 267.918 602.26 267.918 604.687C267.918 606.321 268.014 607.678 268.206 608.759C268.398 609.817 268.783 610.682 269.359 611.354C269.96 612.003 270.837 612.327 271.99 612.327C273.143 612.327 274.008 612.003 274.585 611.354C275.186 610.682 275.582 609.817 275.774 608.759C275.967 607.678 276.063 606.321 276.063 604.687ZM310.923 592.902V610.129C310.923 612.796 310.166 614.85 308.652 616.292C307.163 617.733 305.144 618.454 302.598 618.454C299.931 618.454 297.792 617.697 296.182 616.184C294.573 614.67 293.768 612.52 293.768 609.732H299.895C299.895 610.79 300.111 611.595 300.543 612.147C300.976 612.676 301.601 612.94 302.417 612.94C303.162 612.94 303.739 612.7 304.147 612.219C304.556 611.739 304.76 611.042 304.76 610.129V592.902H310.923ZM336.48 598.091V618.202H330.317V615.463C329.692 616.352 328.839 617.073 327.758 617.625C326.701 618.154 325.524 618.418 324.226 618.418C322.689 618.418 321.331 618.082 320.154 617.409C318.976 616.712 318.063 615.715 317.415 614.418C316.766 613.12 316.442 611.595 316.442 609.841V598.091H322.568V609.012C322.568 610.357 322.917 611.402 323.614 612.147C324.31 612.892 325.247 613.264 326.425 613.264C327.626 613.264 328.575 612.892 329.272 612.147C329.969 611.402 330.317 610.357 330.317 609.012V598.091H336.48ZM353.881 597.875C356.236 597.875 358.11 598.644 359.503 600.182C360.921 601.695 361.63 603.786 361.63 606.453V618.202H355.503V607.282C355.503 605.936 355.155 604.891 354.458 604.146C353.761 603.401 352.824 603.029 351.647 603.029C350.469 603.029 349.532 603.401 348.836 604.146C348.139 604.891 347.79 605.936 347.79 607.282V618.202H341.627V598.091H347.79V600.758C348.415 599.869 349.256 599.173 350.313 598.668C351.37 598.14 352.56 597.875 353.881 597.875ZM385.59 607.822C385.59 608.399 385.554 609 385.482 609.624H371.535C371.631 610.874 372.027 611.835 372.724 612.508C373.445 613.156 374.322 613.481 375.355 613.481C376.893 613.481 377.962 612.832 378.562 611.534H385.122C384.785 612.856 384.173 614.045 383.284 615.102C382.419 616.16 381.326 616.989 380.004 617.589C378.683 618.19 377.205 618.49 375.571 618.49C373.601 618.49 371.847 618.07 370.309 617.229C368.772 616.388 367.57 615.187 366.705 613.625C365.84 612.063 365.408 610.237 365.408 608.147C365.408 606.056 365.828 604.23 366.669 602.669C367.534 601.107 368.736 599.905 370.273 599.065C371.811 598.224 373.577 597.803 375.571 597.803C377.517 597.803 379.247 598.212 380.761 599.029C382.275 599.845 383.452 601.011 384.293 602.524C385.158 604.038 385.59 605.804 385.59 607.822ZM379.283 606.201C379.283 605.143 378.923 604.302 378.202 603.678C377.481 603.053 376.58 602.741 375.499 602.741C374.466 602.741 373.589 603.041 372.868 603.642C372.171 604.242 371.739 605.095 371.571 606.201H379.283ZM397.092 613.264C397.909 612.616 398.281 612.315 398.209 612.363C400.564 610.417 402.414 608.819 403.759 607.57C405.129 606.321 406.282 605.011 407.219 603.642C408.156 602.272 408.625 600.939 408.625 599.641C408.625 598.656 408.396 597.887 407.94 597.335C407.483 596.782 406.798 596.506 405.885 596.506C404.972 596.506 404.252 596.854 403.723 597.551C403.219 598.224 402.966 599.185 402.966 600.434H397.02C397.068 598.392 397.5 596.686 398.317 595.316C399.158 593.947 400.251 592.938 401.597 592.289C402.966 591.64 404.48 591.316 406.138 591.316C408.997 591.316 411.147 592.049 412.589 593.514C414.055 594.98 414.787 596.89 414.787 599.245C414.787 601.816 413.91 604.206 412.156 606.417C410.403 608.603 408.168 610.742 405.453 612.832H415.184V617.842H397.092V613.264ZM418.618 604.687C418.618 600.554 419.411 597.299 420.997 594.92C422.607 592.541 425.189 591.352 428.745 591.352C432.301 591.352 434.872 592.541 436.458 594.92C438.068 597.299 438.873 600.554 438.873 604.687C438.873 608.867 438.068 612.147 436.458 614.526C434.872 616.904 432.301 618.094 428.745 618.094C425.189 618.094 422.607 616.904 420.997 614.526C419.411 612.147 418.618 608.867 418.618 604.687ZM432.818 604.687C432.818 602.26 432.554 600.398 432.025 599.101C431.496 597.779 430.403 597.118 428.745 597.118C427.088 597.118 425.994 597.779 425.466 599.101C424.937 600.398 424.673 602.26 424.673 604.687C424.673 606.321 424.769 607.678 424.961 608.759C425.153 609.817 425.538 610.682 426.114 611.354C426.715 612.003 427.592 612.327 428.745 612.327C429.899 612.327 430.764 612.003 431.34 611.354C431.941 610.682 432.337 609.817 432.53 608.759C432.722 607.678 432.818 606.321 432.818 604.687ZM442.633 613.264C443.45 612.616 443.823 612.315 443.751 612.363C446.105 610.417 447.955 608.819 449.301 607.57C450.67 606.321 451.824 605.011 452.761 603.642C453.698 602.272 454.166 600.939 454.166 599.641C454.166 598.656 453.938 597.887 453.481 597.335C453.025 596.782 452.34 596.506 451.427 596.506C450.514 596.506 449.793 596.854 449.265 597.551C448.76 598.224 448.508 599.185 448.508 600.434H442.561C442.609 598.392 443.042 596.686 443.859 595.316C444.7 593.947 445.793 592.938 447.138 592.289C448.508 591.64 450.022 591.316 451.679 591.316C454.539 591.316 456.689 592.049 458.131 593.514C459.596 594.98 460.329 596.89 460.329 599.245C460.329 601.816 459.452 604.206 457.698 606.417C455.944 608.603 453.71 610.742 450.995 612.832H460.725V617.842H442.633V613.264ZM463.511 597.623V591.893H473.494V618.202H467.079V597.623H463.511Z" fill="black"/>
<path d="M104.447 642.884L105.745 645.226L100.735 647.317L105.781 649.371L104.411 651.786L100.051 648.614L100.627 654.056H97.9242L98.4648 648.614L94.1039 651.822L92.6983 649.371L97.7079 647.281L92.6983 645.262L94.0318 642.848L98.5008 646.055L97.9242 640.577H100.663L100.051 646.055L104.447 642.884ZM125.543 641.911V644.578H118.695V667.031H115.415V644.578H108.532V641.911H125.543ZM146.879 656.399C146.879 657.023 146.843 657.684 146.771 658.381H130.985C131.106 660.327 131.766 661.853 132.968 662.958C134.193 664.039 135.671 664.58 137.401 664.58C138.818 664.58 139.995 664.255 140.933 663.607C141.894 662.934 142.566 662.045 142.951 660.94H146.483C145.954 662.838 144.897 664.388 143.311 665.589C141.725 666.766 139.755 667.355 137.401 667.355C135.526 667.355 133.845 666.934 132.355 666.094C130.889 665.253 129.736 664.063 128.895 662.526C128.054 660.964 127.634 659.162 127.634 657.12C127.634 655.077 128.042 653.287 128.859 651.75C129.676 650.212 130.817 649.034 132.283 648.218C133.773 647.377 135.478 646.956 137.401 646.956C139.275 646.956 140.933 647.365 142.374 648.182C143.816 648.998 144.921 650.128 145.69 651.569C146.483 652.987 146.879 654.597 146.879 656.399ZM143.491 655.714C143.491 654.465 143.215 653.395 142.662 652.506C142.11 651.593 141.353 650.909 140.392 650.452C139.455 649.972 138.41 649.731 137.256 649.731C135.599 649.731 134.181 650.26 133.004 651.317C131.85 652.374 131.19 653.84 131.021 655.714H143.491ZM153.767 650.488C154.344 649.359 155.161 648.482 156.218 647.857C157.299 647.232 158.608 646.92 160.146 646.92V650.308H159.281C155.605 650.308 153.767 652.302 153.767 656.291V667.031H150.487V647.281H153.767V650.488ZM186.962 646.92C188.499 646.92 189.869 647.245 191.07 647.893C192.272 648.518 193.221 649.467 193.918 650.74C194.614 652.014 194.963 653.564 194.963 655.39V667.031H191.719V655.858C191.719 653.888 191.227 652.386 190.241 651.353C189.28 650.296 187.971 649.767 186.313 649.767C184.607 649.767 183.25 650.32 182.241 651.425C181.231 652.506 180.727 654.08 180.727 656.146V667.031H177.483V655.858C177.483 653.888 176.991 652.386 176.006 651.353C175.044 650.296 173.735 649.767 172.077 649.767C170.371 649.767 169.014 650.32 168.005 651.425C166.996 652.506 166.491 654.08 166.491 656.146V667.031H163.211V647.281H166.491V650.128C167.14 649.095 168.005 648.302 169.086 647.749C170.191 647.196 171.404 646.92 172.726 646.92C174.384 646.92 175.849 647.293 177.123 648.037C178.396 648.782 179.345 649.875 179.97 651.317C180.523 649.923 181.436 648.842 182.709 648.073C183.982 647.305 185.4 646.92 186.962 646.92ZM206.614 667.355C205.1 667.355 203.742 667.103 202.541 666.598C201.34 666.07 200.391 665.349 199.694 664.436C198.997 663.499 198.613 662.429 198.541 661.228H201.928C202.024 662.213 202.481 663.018 203.298 663.643C204.139 664.267 205.232 664.58 206.578 664.58C207.827 664.58 208.812 664.304 209.533 663.751C210.254 663.198 210.614 662.502 210.614 661.661C210.614 660.796 210.23 660.159 209.461 659.75C208.692 659.318 207.503 658.898 205.893 658.489C204.427 658.105 203.226 657.72 202.289 657.336C201.376 656.927 200.583 656.339 199.91 655.57C199.261 654.777 198.937 653.744 198.937 652.47C198.937 651.461 199.237 650.536 199.838 649.695C200.439 648.854 201.292 648.194 202.397 647.713C203.502 647.208 204.763 646.956 206.181 646.956C208.368 646.956 210.133 647.509 211.479 648.614C212.824 649.719 213.545 651.233 213.641 653.155H210.362C210.29 652.122 209.869 651.293 209.1 650.668C208.355 650.044 207.346 649.731 206.073 649.731C204.896 649.731 203.959 649.984 203.262 650.488C202.565 650.993 202.217 651.653 202.217 652.47C202.217 653.119 202.421 653.66 202.829 654.092C203.262 654.501 203.79 654.837 204.415 655.101C205.064 655.342 205.953 655.618 207.082 655.93C208.5 656.315 209.653 656.699 210.542 657.083C211.431 657.444 212.188 657.996 212.812 658.741C213.461 659.486 213.798 660.459 213.822 661.661C213.822 662.742 213.521 663.715 212.921 664.58C212.32 665.445 211.467 666.13 210.362 666.634C209.281 667.115 208.031 667.355 206.614 667.355ZM245.9 667.031L242.62 663.715C241.395 664.988 240.085 665.937 238.692 666.562C237.298 667.163 235.724 667.463 233.97 667.463C232.24 667.463 230.703 667.151 229.357 666.526C228.036 665.901 227.003 665.012 226.258 663.859C225.537 662.706 225.177 661.36 225.177 659.823C225.177 658.069 225.669 656.531 226.654 655.209C227.663 653.864 229.141 652.807 231.087 652.038C230.318 651.125 229.766 650.284 229.429 649.515C229.093 648.746 228.925 647.905 228.925 646.992C228.925 645.935 229.189 644.986 229.718 644.145C230.27 643.28 231.051 642.607 232.06 642.127C233.069 641.646 234.235 641.406 235.556 641.406C236.854 641.406 237.983 641.658 238.944 642.163C239.905 642.667 240.626 643.376 241.106 644.289C241.587 645.178 241.803 646.175 241.755 647.281H238.475C238.499 646.295 238.223 645.527 237.646 644.974C237.07 644.397 236.325 644.109 235.412 644.109C234.451 644.109 233.67 644.385 233.069 644.938C232.493 645.467 232.204 646.151 232.204 646.992C232.204 647.713 232.397 648.41 232.781 649.083C233.189 649.755 233.862 650.584 234.799 651.569L242.296 659.102L242.944 658.093L245.395 653.984H248.927L245.972 659.102C245.563 659.823 245.083 660.579 244.53 661.372L250.188 667.031H245.9ZM233.97 664.652C235.268 664.652 236.433 664.4 237.466 663.895C238.523 663.391 239.521 662.61 240.458 661.552L233.069 654.128C229.994 655.305 228.456 657.168 228.456 659.714C228.456 661.132 228.961 662.309 229.97 663.246C231.003 664.183 232.337 664.652 233.97 664.652ZM260.203 654.453C260.203 652.002 260.755 649.803 261.86 647.857C262.966 645.887 264.467 644.349 266.365 643.244C268.288 642.139 270.414 641.586 272.745 641.586C275.484 641.586 277.874 642.247 279.917 643.568C281.959 644.89 283.448 646.764 284.386 649.191H280.457C279.76 647.677 278.751 646.512 277.43 645.695C276.132 644.878 274.571 644.469 272.745 644.469C270.991 644.469 269.417 644.878 268.023 645.695C266.63 646.512 265.536 647.677 264.744 649.191C263.951 650.68 263.554 652.434 263.554 654.453C263.554 656.447 263.951 658.201 264.744 659.714C265.536 661.204 266.63 662.357 268.023 663.174C269.417 663.991 270.991 664.4 272.745 664.4C274.571 664.4 276.132 664.003 277.43 663.21C278.751 662.393 279.76 661.228 280.457 659.714H284.386C283.448 662.117 281.959 663.979 279.917 665.301C277.874 666.598 275.484 667.247 272.745 667.247C270.414 667.247 268.288 666.706 266.365 665.625C264.467 664.52 262.966 662.994 261.86 661.048C260.755 659.102 260.203 656.903 260.203 654.453ZM297.16 667.355C295.31 667.355 293.628 666.934 292.115 666.094C290.625 665.253 289.448 664.063 288.583 662.526C287.742 660.964 287.321 659.162 287.321 657.12C287.321 655.101 287.754 653.323 288.619 651.786C289.508 650.224 290.709 649.034 292.223 648.218C293.737 647.377 295.43 646.956 297.305 646.956C299.179 646.956 300.873 647.377 302.386 648.218C303.9 649.034 305.089 650.212 305.954 651.75C306.843 653.287 307.288 655.077 307.288 657.12C307.288 659.162 306.831 660.964 305.918 662.526C305.029 664.063 303.816 665.253 302.278 666.094C300.74 666.934 299.034 667.355 297.16 667.355ZM297.16 664.472C298.338 664.472 299.443 664.195 300.476 663.643C301.509 663.09 302.338 662.261 302.963 661.156C303.612 660.051 303.936 658.705 303.936 657.12C303.936 655.534 303.624 654.188 302.999 653.083C302.374 651.978 301.557 651.161 300.548 650.632C299.539 650.08 298.446 649.803 297.268 649.803C296.067 649.803 294.962 650.08 293.953 650.632C292.968 651.161 292.175 651.978 291.574 653.083C290.973 654.188 290.673 655.534 290.673 657.12C290.673 658.729 290.961 660.087 291.538 661.192C292.139 662.297 292.932 663.126 293.917 663.679C294.902 664.207 295.983 664.472 297.16 664.472ZM320.502 646.92C322.904 646.92 324.851 647.653 326.34 649.119C327.83 650.56 328.575 652.651 328.575 655.39V667.031H325.331V655.858C325.331 653.888 324.839 652.386 323.853 651.353C322.868 650.296 321.523 649.767 319.817 649.767C318.087 649.767 316.706 650.308 315.672 651.389C314.663 652.47 314.159 654.044 314.159 656.11V667.031H310.879V647.281H314.159V650.092C314.807 649.083 315.684 648.302 316.79 647.749C317.919 647.196 319.156 646.92 320.502 646.92ZM331.986 657.083C331.986 655.065 332.394 653.299 333.211 651.786C334.028 650.248 335.145 649.059 336.563 648.218C338.005 647.377 339.614 646.956 341.392 646.956C342.93 646.956 344.36 647.317 345.681 648.037C347.003 648.734 348.012 649.659 348.709 650.812V640.361H352.024V667.031H348.709V663.318C348.06 664.496 347.099 665.469 345.825 666.238C344.552 666.983 343.062 667.355 341.356 667.355C339.602 667.355 338.005 666.922 336.563 666.057C335.145 665.193 334.028 663.979 333.211 662.417C332.394 660.856 331.986 659.078 331.986 657.083ZM348.709 657.12C348.709 655.63 348.408 654.332 347.808 653.227C347.207 652.122 346.39 651.281 345.357 650.704C344.348 650.104 343.23 649.803 342.005 649.803C340.78 649.803 339.662 650.092 338.653 650.668C337.644 651.245 336.839 652.086 336.239 653.191C335.638 654.296 335.338 655.594 335.338 657.083C335.338 658.597 335.638 659.919 336.239 661.048C336.839 662.153 337.644 663.006 338.653 663.607C339.662 664.183 340.78 664.472 342.005 664.472C343.23 664.472 344.348 664.183 345.357 663.607C346.39 663.006 347.207 662.153 347.808 661.048C348.408 659.919 348.709 658.609 348.709 657.12ZM358.54 644.073C357.915 644.073 357.386 643.857 356.954 643.424C356.521 642.992 356.305 642.463 356.305 641.838C356.305 641.214 356.521 640.685 356.954 640.253C357.386 639.82 357.915 639.604 358.54 639.604C359.14 639.604 359.645 639.82 360.053 640.253C360.486 640.685 360.702 641.214 360.702 641.838C360.702 642.463 360.486 642.992 360.053 643.424C359.645 643.857 359.14 644.073 358.54 644.073ZM360.125 647.281V667.031H356.846V647.281H360.125ZM368.995 649.984V661.625C368.995 662.586 369.199 663.27 369.607 663.679C370.016 664.063 370.725 664.255 371.734 664.255H374.148V667.031H371.193C369.367 667.031 367.998 666.61 367.085 665.769C366.172 664.928 365.715 663.547 365.715 661.625V649.984H363.156V647.281H365.715V642.307H368.995V647.281H374.148V649.984H368.995ZM379.095 644.073C378.471 644.073 377.942 643.857 377.509 643.424C377.077 642.992 376.861 642.463 376.861 641.838C376.861 641.214 377.077 640.685 377.509 640.253C377.942 639.82 378.471 639.604 379.095 639.604C379.696 639.604 380.2 639.82 380.609 640.253C381.041 640.685 381.258 641.214 381.258 641.838C381.258 642.463 381.041 642.992 380.609 643.424C380.2 643.857 379.696 644.073 379.095 644.073ZM380.681 647.281V667.031H377.401V647.281H380.681ZM394.163 667.355C392.313 667.355 390.631 666.934 389.118 666.094C387.628 665.253 386.451 664.063 385.586 662.526C384.745 660.964 384.324 659.162 384.324 657.12C384.324 655.101 384.757 653.323 385.622 651.786C386.511 650.224 387.712 649.034 389.226 648.218C390.74 647.377 392.433 646.956 394.308 646.956C396.182 646.956 397.876 647.377 399.389 648.218C400.903 649.034 402.092 650.212 402.957 651.75C403.846 653.287 404.291 655.077 404.291 657.12C404.291 659.162 403.834 660.964 402.921 662.526C402.032 664.063 400.819 665.253 399.281 666.094C397.743 666.934 396.038 667.355 394.163 667.355ZM394.163 664.472C395.341 664.472 396.446 664.195 397.479 663.643C398.512 663.09 399.341 662.261 399.966 661.156C400.615 660.051 400.939 658.705 400.939 657.12C400.939 655.534 400.627 654.188 400.002 653.083C399.377 651.978 398.56 651.161 397.551 650.632C396.542 650.08 395.449 649.803 394.272 649.803C393.07 649.803 391.965 650.08 390.956 650.632C389.971 651.161 389.178 651.978 388.577 653.083C387.977 654.188 387.676 655.534 387.676 657.12C387.676 658.729 387.965 660.087 388.541 661.192C389.142 662.297 389.935 663.126 390.92 663.679C391.905 664.207 392.986 664.472 394.163 664.472ZM417.505 646.92C419.908 646.92 421.854 647.653 423.343 649.119C424.833 650.56 425.578 652.651 425.578 655.39V667.031H422.334V655.858C422.334 653.888 421.842 652.386 420.857 651.353C419.871 650.296 418.526 649.767 416.82 649.767C415.09 649.767 413.709 650.308 412.675 651.389C411.666 652.47 411.162 654.044 411.162 656.11V667.031H407.882V647.281H411.162V650.092C411.81 649.083 412.687 648.302 413.793 647.749C414.922 647.196 416.159 646.92 417.505 646.92ZM437.206 667.355C435.692 667.355 434.335 667.103 433.134 666.598C431.932 666.07 430.983 665.349 430.286 664.436C429.59 663.499 429.205 662.429 429.133 661.228H432.521C432.617 662.213 433.074 663.018 433.89 663.643C434.731 664.267 435.825 664.58 437.17 664.58C438.419 664.58 439.405 664.304 440.125 663.751C440.846 663.198 441.207 662.502 441.207 661.661C441.207 660.796 440.822 660.159 440.053 659.75C439.284 659.318 438.095 658.898 436.485 658.489C435.02 658.105 433.818 657.72 432.881 657.336C431.968 656.927 431.175 656.339 430.503 655.57C429.854 654.777 429.53 653.744 429.53 652.47C429.53 651.461 429.83 650.536 430.431 649.695C431.031 648.854 431.884 648.194 432.989 647.713C434.095 647.208 435.356 646.956 436.774 646.956C438.96 646.956 440.726 647.509 442.072 648.614C443.417 649.719 444.138 651.233 444.234 653.155H440.954C440.882 652.122 440.462 651.293 439.693 650.668C438.948 650.044 437.939 649.731 436.666 649.731C435.488 649.731 434.551 649.984 433.854 650.488C433.158 650.993 432.809 651.653 432.809 652.47C432.809 653.119 433.013 653.66 433.422 654.092C433.854 654.501 434.383 654.837 435.008 655.101C435.656 655.342 436.545 655.618 437.675 655.93C439.092 656.315 440.246 656.699 441.135 657.083C442.024 657.444 442.78 657.996 443.405 658.741C444.054 659.486 444.39 660.459 444.414 661.661C444.414 662.742 444.114 663.715 443.513 664.58C442.913 665.445 442.06 666.13 440.954 666.634C439.873 667.115 438.624 667.355 437.206 667.355ZM455.985 657.083C455.985 655.065 456.394 653.299 457.211 651.786C458.028 650.248 459.145 649.059 460.562 648.218C462.004 647.377 463.602 646.956 465.356 646.956C467.086 646.956 468.587 647.329 469.861 648.073C471.134 648.818 472.083 649.755 472.708 650.885V647.281H476.024V667.031H472.708V663.354C472.059 664.508 471.086 665.469 469.789 666.238C468.515 666.983 467.026 667.355 465.32 667.355C463.566 667.355 461.98 666.922 460.562 666.057C459.145 665.193 458.028 663.979 457.211 662.417C456.394 660.856 455.985 659.078 455.985 657.083ZM472.708 657.12C472.708 655.63 472.408 654.332 471.807 653.227C471.206 652.122 470.389 651.281 469.356 650.704C468.347 650.104 467.23 649.803 466.005 649.803C464.779 649.803 463.662 650.092 462.653 650.668C461.644 651.245 460.839 652.086 460.238 653.191C459.637 654.296 459.337 655.594 459.337 657.083C459.337 658.597 459.637 659.919 460.238 661.048C460.839 662.153 461.644 663.006 462.653 663.607C463.662 664.183 464.779 664.472 466.005 664.472C467.23 664.472 468.347 664.183 469.356 663.607C470.389 663.006 471.206 662.153 471.807 661.048C472.408 659.919 472.708 658.609 472.708 657.12ZM484.125 650.921C484.774 649.791 485.735 648.854 487.008 648.109C488.306 647.341 489.807 646.956 491.513 646.956C493.267 646.956 494.853 647.377 496.27 648.218C497.712 649.059 498.841 650.248 499.658 651.786C500.475 653.299 500.884 655.065 500.884 657.083C500.884 659.078 500.475 660.856 499.658 662.417C498.841 663.979 497.712 665.193 496.27 666.057C494.853 666.922 493.267 667.355 491.513 667.355C489.831 667.355 488.342 666.983 487.044 666.238C485.771 665.469 484.798 664.52 484.125 663.391V676.401H480.845V647.281H484.125V650.921ZM497.532 657.083C497.532 655.594 497.231 654.296 496.631 653.191C496.03 652.086 495.213 651.245 494.18 650.668C493.171 650.092 492.054 649.803 490.828 649.803C489.627 649.803 488.51 650.104 487.477 650.704C486.467 651.281 485.651 652.134 485.026 653.263C484.425 654.368 484.125 655.654 484.125 657.12C484.125 658.609 484.425 659.919 485.026 661.048C485.651 662.153 486.467 663.006 487.477 663.607C488.51 664.183 489.627 664.472 490.828 664.472C492.054 664.472 493.171 664.183 494.18 663.607C495.213 663.006 496.03 662.153 496.631 661.048C497.231 659.919 497.532 658.597 497.532 657.083ZM507.759 650.921C508.408 649.791 509.369 648.854 510.643 648.109C511.94 647.341 513.442 646.956 515.148 646.956C516.902 646.956 518.487 647.377 519.905 648.218C521.347 649.059 522.476 650.248 523.293 651.786C524.11 653.299 524.518 655.065 524.518 657.083C524.518 659.078 524.11 660.856 523.293 662.417C522.476 663.979 521.347 665.193 519.905 666.057C518.487 666.922 516.902 667.355 515.148 667.355C513.466 667.355 511.976 666.983 510.679 666.238C509.405 665.469 508.432 664.52 507.759 663.391V676.401H504.48V647.281H507.759V650.921ZM521.166 657.083C521.166 655.594 520.866 654.296 520.265 653.191C519.665 652.086 518.848 651.245 517.815 650.668C516.805 650.092 515.688 649.803 514.463 649.803C513.262 649.803 512.144 650.104 511.111 650.704C510.102 651.281 509.285 652.134 508.66 653.263C508.06 654.368 507.759 655.654 507.759 657.12C507.759 658.609 508.06 659.919 508.66 661.048C509.285 662.153 510.102 663.006 511.111 663.607C512.144 664.183 513.262 664.472 514.463 664.472C515.688 664.472 516.805 664.183 517.815 663.607C518.848 663.006 519.665 662.153 520.265 661.048C520.866 659.919 521.166 658.597 521.166 657.083ZM531.394 640.361V667.031H528.114V640.361H531.394ZM553.274 647.281L541.38 676.329H537.993L541.885 666.814L533.92 647.281H537.56L543.759 663.282L549.886 647.281H553.274Z" fill="black"/>
<rect x="90.5005" y="717.55" width="265.622" height="95.3322" rx="8.13811" fill="black"/>
<path d="M150.41 775.485C149.052 775.485 147.824 775.252 146.727 774.787C145.648 774.322 144.792 773.652 144.16 772.778C143.528 771.904 143.202 770.871 143.183 769.681H147.369C147.425 770.481 147.704 771.113 148.206 771.578C148.727 772.043 149.433 772.276 150.326 772.276C151.238 772.276 151.954 772.062 152.475 771.634C152.996 771.188 153.256 770.611 153.256 769.904C153.256 769.328 153.079 768.853 152.726 768.481C152.372 768.109 151.926 767.821 151.387 767.616C150.866 767.393 150.14 767.151 149.21 766.891C147.945 766.519 146.913 766.156 146.113 765.803C145.332 765.431 144.653 764.882 144.076 764.156C143.518 763.412 143.239 762.426 143.239 761.199C143.239 760.045 143.528 759.041 144.104 758.185C144.681 757.33 145.49 756.679 146.532 756.232C147.573 755.767 148.764 755.535 150.103 755.535C152.112 755.535 153.74 756.028 154.986 757.013C156.251 757.981 156.948 759.339 157.079 761.087H152.782C152.745 760.417 152.456 759.869 151.917 759.441C151.396 758.994 150.698 758.771 149.824 758.771C149.061 758.771 148.448 758.967 147.983 759.357C147.536 759.748 147.313 760.315 147.313 761.059C147.313 761.58 147.48 762.017 147.815 762.371C148.169 762.705 148.596 762.984 149.099 763.208C149.619 763.412 150.345 763.654 151.275 763.933C152.54 764.305 153.572 764.677 154.372 765.049C155.172 765.421 155.86 765.979 156.437 766.723C157.014 767.467 157.302 768.444 157.302 769.653C157.302 770.695 157.032 771.662 156.493 772.555C155.953 773.448 155.163 774.164 154.121 774.703C153.079 775.224 151.842 775.485 150.41 775.485ZM177.402 755.814V775.289H173.496V767.002H165.153V775.289H161.247V755.814H165.153V763.822H173.496V755.814H177.402ZM190.845 775.485C189.022 775.485 187.348 775.057 185.823 774.201C184.297 773.345 183.088 772.164 182.195 770.658C181.302 769.132 180.856 767.412 180.856 765.496C180.856 763.598 181.302 761.896 182.195 760.39C183.088 758.864 184.297 757.674 185.823 756.818C187.348 755.962 189.022 755.535 190.845 755.535C192.686 755.535 194.361 755.962 195.867 756.818C197.393 757.674 198.592 758.864 199.467 760.39C200.36 761.896 200.806 763.598 200.806 765.496C200.806 767.412 200.36 769.132 199.467 770.658C198.592 772.164 197.393 773.345 195.867 774.201C194.342 775.057 192.668 775.485 190.845 775.485ZM190.845 771.997C192.017 771.997 193.049 771.736 193.942 771.216C194.835 770.676 195.533 769.914 196.035 768.928C196.537 767.942 196.788 766.798 196.788 765.496C196.788 764.194 196.537 763.059 196.035 762.092C195.533 761.106 194.835 760.352 193.942 759.832C193.049 759.311 192.017 759.05 190.845 759.05C189.673 759.05 188.631 759.311 187.72 759.832C186.827 760.352 186.13 761.106 185.627 762.092C185.125 763.059 184.874 764.194 184.874 765.496C184.874 766.798 185.125 767.942 185.627 768.928C186.13 769.914 186.827 770.676 187.72 771.216C188.631 771.736 189.673 771.997 190.845 771.997ZM218.472 761.84C218.472 762.882 218.221 763.859 217.719 764.77C217.235 765.682 216.463 766.416 215.403 766.974C214.361 767.533 213.041 767.812 211.441 767.812H208.177V775.289H204.27V755.814H211.441C212.948 755.814 214.231 756.074 215.292 756.595C216.352 757.116 217.142 757.832 217.663 758.743C218.203 759.655 218.472 760.687 218.472 761.84ZM211.274 764.659C212.353 764.659 213.152 764.417 213.673 763.933C214.194 763.431 214.454 762.733 214.454 761.84C214.454 759.943 213.394 758.994 211.274 758.994H208.177V764.659H211.274ZM245.668 775.289H241.762L232.917 761.924V775.289H229.01V755.786H232.917L241.762 769.179V755.786H245.668V775.289ZM259.127 775.485C257.304 775.485 255.63 775.057 254.104 774.201C252.579 773.345 251.37 772.164 250.477 770.658C249.584 769.132 249.138 767.412 249.138 765.496C249.138 763.598 249.584 761.896 250.477 760.39C251.37 758.864 252.579 757.674 254.104 756.818C255.63 755.962 257.304 755.535 259.127 755.535C260.968 755.535 262.642 755.962 264.149 756.818C265.674 757.674 266.874 758.864 267.748 760.39C268.641 761.896 269.088 763.598 269.088 765.496C269.088 767.412 268.641 769.132 267.748 770.658C266.874 772.164 265.674 773.345 264.149 774.201C262.624 775.057 260.95 775.485 259.127 775.485ZM259.127 771.997C260.299 771.997 261.331 771.736 262.224 771.216C263.117 770.676 263.814 769.914 264.316 768.928C264.819 767.942 265.07 766.798 265.07 765.496C265.07 764.194 264.819 763.059 264.316 762.092C263.814 761.106 263.117 760.352 262.224 759.832C261.331 759.311 260.299 759.05 259.127 759.05C257.955 759.05 256.913 759.311 256.002 759.832C255.109 760.352 254.411 761.106 253.909 762.092C253.407 763.059 253.156 764.194 253.156 765.496C253.156 766.798 253.407 767.942 253.909 768.928C254.411 769.914 255.109 770.676 256.002 771.216C256.913 771.736 257.955 771.997 259.127 771.997ZM298.585 755.814L293.144 775.289H288.54L284.885 761.422L281.062 775.289L276.486 775.317L271.24 755.814H275.426L278.858 770.937L282.82 755.814H287.173L290.911 770.853L294.371 755.814H298.585Z" fill="white"/>
<defs>
<linearGradient id="paint0_linear_224_3" x1="55.175" y1="968" x2="78.3426" y2="0.602796" gradientUnits="userSpaceOnUse">
<stop stop-color="#E0C340"/>
<stop offset="0.0392859" stop-color="#DFC23E"/>
<stop offset="0.0722943" stop-color="#E1C441"/>
<stop offset="0.102289" stop-color="#E3C743"/>
<stop offset="0.13141" stop-color="#E4C542"/>
<stop offset="0.162226" stop-color="#E6C744"/>
<stop offset="0.198395" stop-color="#E7C845"/>
<stop offset="0.243828" stop-color="#E5C643"/>
<stop offset="0.309963" stop-color="#E6C945"/>
<stop offset="0.371935" stop-color="#E3C743"/>
<stop offset="0.433333" stop-color="#E9CA48"/>
<stop offset="0.503585" stop-color="#EDCE49"/>
<stop offset="0.565688" stop-color="#F0D44C"/>
<stop offset="0.627115" stop-color="#F4D84F"/>
<stop offset="0.671236" stop-color="#F6DA52"/>
<stop offset="0.737666" stop-color="#F7DB53"/>
<stop offset="0.790799" stop-color="#F9DD55"/>
<stop offset="0.856448" stop-color="#F9DF56"/>
<stop offset="0.93496" stop-color="#FAE157"/>
<stop offset="1" stop-color="#F9DF56"/>
</linearGradient>
</defs>
</svg>
