<svg width="468" height="431" viewBox="0 0 468 431" fill="none" xmlns="http://www.w3.org/2000/svg">
<path d="M24.112 53.872H44.656V70H2.8V2.032H24.112V53.872ZM72.6745 19.024V27.376H93.7945V43.408H72.6745V53.008H96.6745V70H51.3625V2.032H96.6745V19.024H72.6745ZM158.082 2.032V18.928H140.034V70H118.722V18.928H100.866V2.032H158.082ZM169.431 2.032H190.551L179.223 30.352H165.207L169.431 2.032ZM226.736 70.672C218.608 70.672 211.888 68.784 206.576 65.008C201.328 61.168 198.48 55.568 198.032 48.208H220.688C221.008 52.112 222.736 54.064 225.872 54.064C227.024 54.064 227.984 53.808 228.752 53.296C229.584 52.72 230 51.856 230 50.704C230 49.104 229.136 47.824 227.408 46.864C225.68 45.84 222.992 44.688 219.344 43.408C214.992 41.872 211.376 40.368 208.496 38.896C205.68 37.424 203.248 35.28 201.2 32.464C199.152 29.648 198.16 26.032 198.224 21.616C198.224 17.2 199.344 13.456 201.584 10.384C203.888 7.248 206.992 4.88 210.896 3.27999C214.864 1.68 219.312 0.879997 224.24 0.879997C232.56 0.879997 239.152 2.8 244.016 6.64C248.944 10.48 251.536 15.888 251.792 22.864H228.848C228.784 20.944 228.304 19.568 227.408 18.736C226.512 17.904 225.424 17.488 224.144 17.488C223.248 17.488 222.512 17.808 221.936 18.448C221.36 19.024 221.072 19.856 221.072 20.944C221.072 22.48 221.904 23.76 223.568 24.784C225.296 25.744 228.016 26.928 231.728 28.336C236.016 29.936 239.536 31.472 242.288 32.944C245.104 34.416 247.536 36.464 249.584 39.088C251.632 41.712 252.656 45.008 252.656 48.976C252.656 53.136 251.632 56.88 249.584 60.208C247.536 63.472 244.56 66.032 240.656 67.888C236.752 69.744 232.112 70.672 226.736 70.672ZM24.112 139.024V147.376H45.232V163.408H24.112V173.008H48.112V190H2.8V122.032H48.112V139.024H24.112ZM99.4398 190L86.9598 172.336L76.5918 190H52.3038L74.6718 154.96L51.3438 122.032H76.5918L88.5918 139.024L98.5758 122.032H122.864L100.88 156.4L124.688 190H99.4398ZM185.04 145.36C185.04 149.648 184.048 153.552 182.064 157.072C180.08 160.528 177.136 163.28 173.232 165.328C169.392 167.376 164.72 168.4 159.216 168.4H150.768V190H129.456V122.032H159.216C167.536 122.032 173.904 124.144 178.32 128.368C182.8 132.592 185.04 138.256 185.04 145.36ZM156.816 151.6C161.232 151.6 163.44 149.52 163.44 145.36C163.44 141.2 161.232 139.12 156.816 139.12H150.768V151.6H156.816ZM213.112 173.872H233.656V190H191.8V122.032H213.112V173.872ZM273.483 190.672C267.083 190.672 261.195 189.168 255.819 186.16C250.507 183.152 246.283 178.992 243.147 173.68C240.011 168.368 238.443 162.384 238.443 155.728C238.443 149.072 240.011 143.088 243.147 137.776C246.283 132.464 250.507 128.336 255.819 125.392C261.195 122.384 267.083 120.88 273.483 120.88C279.883 120.88 285.739 122.384 291.051 125.392C296.363 128.336 300.555 132.464 303.627 137.776C306.763 143.088 308.331 149.072 308.331 155.728C308.331 162.384 306.763 168.368 303.627 173.68C300.555 178.992 296.331 183.152 290.955 186.16C285.643 189.168 279.819 190.672 273.483 190.672ZM273.483 170.8C277.707 170.8 280.971 169.456 283.275 166.768C285.579 164.016 286.731 160.336 286.731 155.728C286.731 151.056 285.579 147.376 283.275 144.688C280.971 141.936 277.707 140.56 273.483 140.56C269.195 140.56 265.899 141.936 263.595 144.688C261.291 147.376 260.139 151.056 260.139 155.728C260.139 160.336 261.291 164.016 263.595 166.768C265.899 169.456 269.195 170.8 273.483 170.8ZM350.195 190L337.427 165.616H337.331V190H316.019V122.032H347.699C353.203 122.032 357.907 123.024 361.811 125.008C365.715 126.928 368.627 129.584 370.547 132.976C372.531 136.304 373.523 140.08 373.523 144.304C373.523 148.848 372.243 152.88 369.683 156.4C367.187 159.92 363.571 162.448 358.835 163.984L373.619 190H350.195ZM337.331 151.408H345.779C347.827 151.408 349.363 150.96 350.387 150.064C351.411 149.104 351.923 147.632 351.923 145.648C351.923 143.856 351.379 142.448 350.291 141.424C349.267 140.4 347.763 139.888 345.779 139.888H337.331V151.408ZM401.643 139.024V147.376H422.763V163.408H401.643V173.008H425.643V190H380.331V122.032H425.643V139.024H401.643ZM23.632 242.032V280.336C23.632 283.472 24.304 285.968 25.648 287.824C27.056 289.616 29.296 290.512 32.368 290.512C35.44 290.512 37.712 289.616 39.184 287.824C40.656 285.968 41.392 283.472 41.392 280.336V242.032H62.608V280.336C62.608 286.8 61.264 292.336 58.576 296.944C55.888 301.488 52.208 304.912 47.536 307.216C42.864 309.52 37.648 310.672 31.888 310.672C26.128 310.672 21.008 309.52 16.528 307.216C12.112 304.912 8.656 301.488 6.16 296.944C3.664 292.4 2.416 286.864 2.416 280.336V242.032H23.632ZM136.984 310H115.672L93.112 275.824V310H71.8V242.032H93.112L115.672 276.784V242.032H136.984V310ZM167.925 242.032V310H146.613V242.032H167.925ZM222.286 321.04L215.758 310.288C214.286 310.544 212.59 310.672 210.67 310.672C204.27 310.672 198.382 309.168 193.006 306.16C187.694 303.152 183.47 298.992 180.334 293.68C177.198 288.368 175.63 282.384 175.63 275.728C175.63 269.072 177.198 263.088 180.334 257.776C183.47 252.464 187.694 248.336 193.006 245.392C198.382 242.384 204.27 240.88 210.67 240.88C217.07 240.88 222.926 242.384 228.238 245.392C233.55 248.336 237.742 252.464 240.814 257.776C243.95 263.088 245.518 269.072 245.518 275.728C245.518 281.168 244.462 286.192 242.35 290.8C240.238 295.344 237.326 299.216 233.614 302.416L247.438 321.04H222.286ZM197.326 275.728C197.326 280.336 198.478 284.016 200.782 286.768C203.086 289.456 206.382 290.8 210.67 290.8C214.894 290.8 218.158 289.456 220.462 286.768C222.766 284.016 223.918 280.336 223.918 275.728C223.918 271.056 222.766 267.376 220.462 264.688C218.158 261.936 214.894 260.56 210.67 260.56C206.382 260.56 203.086 261.936 200.782 264.688C198.478 267.376 197.326 271.056 197.326 275.728ZM274.038 242.032V280.336C274.038 283.472 274.71 285.968 276.054 287.824C277.462 289.616 279.702 290.512 282.774 290.512C285.846 290.512 288.118 289.616 289.59 287.824C291.062 285.968 291.798 283.472 291.798 280.336V242.032H313.014V280.336C313.014 286.8 311.67 292.336 308.982 296.944C306.294 301.488 302.614 304.912 297.942 307.216C293.27 309.52 288.054 310.672 282.294 310.672C276.534 310.672 271.414 309.52 266.934 307.216C262.518 304.912 259.062 301.488 256.566 296.944C254.07 292.4 252.822 286.864 252.822 280.336V242.032H274.038ZM343.518 259.024V267.376H364.638V283.408H343.518V293.008H367.518V310H322.206V242.032H367.518V259.024H343.518ZM0.88 395.92C0.88 389.2 2.224 383.216 4.912 377.968C7.664 372.72 11.568 368.656 16.624 365.776C21.68 362.832 27.632 361.36 34.48 361.36C40.368 361.36 45.616 362.48 50.224 364.72C54.896 366.896 58.672 370 61.552 374.032C64.496 378.064 66.448 382.768 67.408 388.144H44.944C43.92 385.904 42.448 384.176 40.528 382.96C38.672 381.68 36.528 381.04 34.096 381.04C30.512 381.04 27.664 382.384 25.552 385.072C23.504 387.76 22.48 391.376 22.48 395.92C22.48 400.464 23.504 404.08 25.552 406.768C27.664 409.456 30.512 410.8 34.096 410.8C36.528 410.8 38.672 410.192 40.528 408.976C42.448 407.696 43.92 405.936 44.944 403.696H67.408C66.448 409.072 64.496 413.776 61.552 417.808C58.672 421.84 54.896 424.976 50.224 427.216C45.616 429.392 40.368 430.48 34.48 430.48C27.632 430.48 21.68 429.04 16.624 426.16C11.568 423.216 7.664 419.12 4.912 413.872C2.224 408.624 0.88 402.64 0.88 395.92ZM96.3933 413.872H116.937V430H75.0813V362.032H96.3933V413.872ZM156.764 430.672C150.364 430.672 144.476 429.168 139.1 426.16C133.788 423.152 129.564 418.992 126.428 413.68C123.292 408.368 121.724 402.384 121.724 395.728C121.724 389.072 123.292 383.088 126.428 377.776C129.564 372.464 133.788 368.336 139.1 365.392C144.476 362.384 150.364 360.88 156.764 360.88C163.164 360.88 169.02 362.384 174.332 365.392C179.644 368.336 183.836 372.464 186.908 377.776C190.044 383.088 191.612 389.072 191.612 395.728C191.612 402.384 190.044 408.368 186.908 413.68C183.836 418.992 179.612 423.152 174.236 426.16C168.924 429.168 163.1 430.672 156.764 430.672ZM156.764 410.8C160.988 410.8 164.252 409.456 166.556 406.768C168.86 404.016 170.012 400.336 170.012 395.728C170.012 391.056 168.86 387.376 166.556 384.688C164.252 381.936 160.988 380.56 156.764 380.56C152.476 380.56 149.18 381.936 146.876 384.688C144.572 387.376 143.42 391.056 143.42 395.728C143.42 400.336 144.572 404.016 146.876 406.768C149.18 409.456 152.476 410.8 156.764 410.8ZM252.676 362.032V378.928H234.628V430H213.316V378.928H195.46V362.032H252.676ZM321.336 362.032V430H300.024V403.504H279.768V430H258.456V362.032H279.768V386.512H300.024V362.032H321.336ZM352.237 379.024V387.376H373.357V403.408H352.237V413.008H376.237V430H330.925V362.032H376.237V379.024H352.237ZM410.861 430.672C402.733 430.672 396.013 428.784 390.701 425.008C385.453 421.168 382.605 415.568 382.157 408.208H404.813C405.133 412.112 406.861 414.064 409.997 414.064C411.149 414.064 412.109 413.808 412.877 413.296C413.709 412.72 414.125 411.856 414.125 410.704C414.125 409.104 413.261 407.824 411.533 406.864C409.805 405.84 407.117 404.688 403.469 403.408C399.117 401.872 395.501 400.368 392.621 398.896C389.805 397.424 387.373 395.28 385.325 392.464C383.277 389.648 382.285 386.032 382.349 381.616C382.349 377.2 383.469 373.456 385.709 370.384C388.013 367.248 391.117 364.88 395.021 363.28C398.989 361.68 403.437 360.88 408.365 360.88C416.685 360.88 423.277 362.8 428.141 366.64C433.069 370.48 435.661 375.888 435.917 382.864H412.973C412.909 380.944 412.429 379.568 411.533 378.736C410.637 377.904 409.549 377.488 408.269 377.488C407.373 377.488 406.637 377.808 406.061 378.448C405.485 379.024 405.197 379.856 405.197 380.944C405.197 382.48 406.029 383.76 407.693 384.784C409.421 385.744 412.141 386.928 415.853 388.336C420.141 389.936 423.661 391.472 426.413 392.944C429.229 394.416 431.661 396.464 433.709 399.088C435.757 401.712 436.781 405.008 436.781 408.976C436.781 413.136 435.757 416.88 433.709 420.208C431.661 423.472 428.685 426.032 424.781 427.888C420.877 429.744 416.237 430.672 410.861 430.672ZM454.829 430.768C451.117 430.768 448.141 429.776 445.901 427.792C443.661 425.808 442.541 423.312 442.541 420.304C442.541 417.232 443.661 414.704 445.901 412.72C448.141 410.672 451.117 409.648 454.829 409.648C458.477 409.648 461.421 410.672 463.661 412.72C465.901 414.704 467.021 417.232 467.021 420.304C467.021 423.312 465.901 425.808 463.661 427.792C461.421 429.776 458.477 430.768 454.829 430.768Z" fill="black"/>
</svg>
