<svg xmlns="http://www.w3.org/2000/svg" xmlns:xlink="http://www.w3.org/1999/xlink" id="egu6kZbeQl11" viewBox="0 0 700 400" shape-rendering="geometricPrecision" text-rendering="geometricPrecision" width="700" height="400" style="background-color:white"><g id="egu6kZbeQl12" transform="matrix(0.157536 0 0 0.157536 300.37616 164.678418)"><g id="egu6kZbeQl13" transform="matrix(1 0 0 1 39.278381 -100.462463)"><ellipse id="egu6kZbeQl14" rx="65" ry="65" transform="matrix(0.695869 0 0 0.695869 174.769 375.231)" fill="none" stroke="black" stroke-width="16"/><ellipse id="egu6kZbeQl15" rx="65" ry="65" transform="matrix(0.695869 0 0 0.695869 393.215 375.231)" fill="none" stroke="black" stroke-width="16"/><g id="egu6kZbeQl16" transform="matrix(1 0 0 1 280.68 299.444)"><g id="egu6kZbeQl17_to" transform="translate(0.000368,-0.000006)"><g id="egu6kZbeQl17" transform="translate(-280.680368,-299.443994)"><path id="egu6kZbeQl18" d="M438.446659,375.231462L460,375.231462L460,340L450,340L450,300Q450.239724,290,430,290Q409.760276,290,340,290L310.210486,218.887982L128.135197,218.887982L110.574524,289.016312" transform="matrix(1 0 0 1 0.721612 0)" fill="none" stroke="black" stroke-width="11" stroke-linejoin="round"/><path id="egu6kZbeQl19" d="M129.537077,380L100,380L100,350L110,350L110,290L190,290Q220.748038,290.39648,250,310Q250,310,320,310L340,290" transform="matrix(1 0 0 1 0.639119 0)" fill="none" stroke="black" stroke-width="11" stroke-linejoin="round"/><path id="egu6kZbeQl110" d="M193.560071,223.466685L193.560071,287.193036" fill="none" stroke="black" stroke-width="11"/><path id="egu6kZbeQl111" d="M220,375.231462L347.983736,375.231462" fill="none" stroke="black" stroke-width="11" stroke-miterlimit="14"/><path id="egu6kZbeQl112" d="M249.425929,331.738372L279.202363,331.738372" fill="none" stroke="black" stroke-width="11"/></g></g></g></g><path id="egu6kZbeQl113" d="M-140.797637,329.307071L309.202363,329.307071" transform="matrix(1 0 0 1 230.797637 0.692929)" fill="none" stroke="black" stroke-width="11" stroke-linecap="round" stroke-dashoffset="26.775" stroke-dasharray="10,50,40,30"/></g></svg>